<?xml version="1.0" standalone="no"?>
<svg class="secstream" height="858" width="1322" style="touch-action: none; -webkit-tap-highlight-color: rgba(0, 0, 0, 0);" xmlns="http://www.w3.org/2000/svg"><defs><clipPath id="clip58wrapper"><path d="M -108.2 838 H 148.2 V 20 H -108.2 V 838 M 148.2 838 H 404.6 V 20 H 148.2 V 838 M 404.6 838 H 661 V 20 H 404.6 V 838 M 661 838 H 917.4 V 20 H 661 V 838 M 917.4 838 H 1173.8 V 20 H 917.4 V 838 M 1173.8 838 H 1430.2 V 20 H 1173.8 V 838 "></path></clipPath><clipPath id="clip55wrapper"><path d="M -108.2 838 H 139.58 V 20 H -108.2 V 838 M 156.82 838 H 395.98 V 20 H 156.82 V 838 M 413.22 838 H 652.38 V 20 H 413.22 V 838 M 669.62 838 H 908.78 V 20 H 669.62 V 838 M 926.02 838 H 1165.18 V 20 H 926.02 V 838 M 1182.42 838 H 1430.2 V 20 H 1182.42 V 838 "></path></clipPath><clipPath id="clip0wrapper"><path d="M -108.2 838 H 130.97 V 20 H -108.2 V 838 M 165.43 838 H 387.37 V 20 H 165.43 V 838 M 421.83 838 H 643.77 V 20 H 421.83 V 838 M 678.23 838 H 900.17 V 20 H 678.23 V 838 M 934.63 838 H 1156.57 V 20 H 934.63 V 838 M 1191.03 838 H 1430.2 V 20 H 1191.03 V 838 "></path></clipPath><clipPath id="clip1wrapper"><path d="M -108.2 838 H 130.97 V 20 H -108.2 V 838 M 165.43 838 H 387.37 V 20 H 165.43 V 838 M 421.83 838 H 643.77 V 20 H 421.83 V 838 M 678.23 838 H 900.17 V 20 H 678.23 V 838 M 934.63 838 H 1156.57 V 20 H 934.63 V 838 M 1191.03 838 H 1430.2 V 20 H 1191.03 V 838 "></path></clipPath><clipPath id="clip2wrapper"><path d="M -108.2 838 H 130.97 V 20 H -108.2 V 838 M 165.43 838 H 387.37 V 20 H 165.43 V 838 M 421.83 838 H 643.77 V 20 H 421.83 V 838 M 678.23 838 H 900.17 V 20 H 678.23 V 838 M 934.63 838 H 1156.57 V 20 H 934.63 V 838 M 1191.03 838 H 1430.2 V 20 H 1191.03 V 838 "></path></clipPath><clipPath id="clip54wrapper"><path d="M -108.2 838 H 130.97 V 20 H -108.2 V 838 M 165.43 838 H 387.37 V 20 H 165.43 V 838 M 421.83 838 H 643.77 V 20 H 421.83 V 838 M 678.23 838 H 900.17 V 20 H 678.23 V 838 M 934.63 838 H 1156.57 V 20 H 934.63 V 838 M 1191.03 838 H 1430.2 V 20 H 1191.03 V 838 "></path></clipPath><clipPath id="clip6wrapper"><path d="M -108.2 838 H 113.74 V 20 H -108.2 V 838 M 182.66 838 H 370.14 V 20 H 182.66 V 838 M 439.06 838 H 626.54 V 20 H 439.06 V 838 M 695.46 838 H 882.94 V 20 H 695.46 V 838 M 951.86 838 H 1139.34 V 20 H 951.86 V 838 M 1208.26 838 H 1430.2 V 20 H 1208.26 V 838 "></path></clipPath><clipPath id="clip3wrapper"><path d="M -108.2 838 H 105.12 V 20 H -108.2 V 838 M 191.28 838 H 361.52 V 20 H 191.28 V 838 M 447.68 838 H 617.92 V 20 H 447.68 V 838 M 704.08 838 H 874.32 V 20 H 704.08 V 838 M 960.48 838 H 1130.72 V 20 H 960.48 V 838 M 1216.88 838 H 1430.2 V 20 H 1216.88 V 838 "></path></clipPath><clipPath id="clip8wrapper"><path d="M -108.2 838 H 96.51 V 20 H -108.2 V 838 M 199.89 838 H 352.91 V 20 H 199.89 V 838 M 456.29 838 H 609.31 V 20 H 456.29 V 838 M 712.69 838 H 865.71 V 20 H 712.69 V 838 M 969.09 838 H 1122.11 V 20 H 969.09 V 838 M 1225.49 838 H 1430.2 V 20 H 1225.49 V 838 "></path></clipPath><clipPath id="clip8_1wrapper"><path d="M -108.2 838 H 635.15 V 20 H -108.2 V 838 M 686.85 838 H 891.55 V 20 H 686.85 V 838 M 943.25 838 H 1147.95 V 20 H 943.25 V 838 M 1199.65 838 H 1430.2 V 20 H 1199.65 V 838 "></path></clipPath><clipPath id="clip3_1wrapper"><path d="M -108.2 838 H 626.54 V 20 H -108.2 V 838 M 695.46 838 H 882.94 V 20 H 695.46 V 838 M 951.86 838 H 1139.34 V 20 H 951.86 V 838 M 1208.26 838 H 1430.2 V 20 H 1208.26 V 838 "></path></clipPath><clipPath id="clip7_1wrapper"><path d="M -108.2 838 H 626.54 V 20 H -108.2 V 838 M 695.46 838 H 882.94 V 20 H 695.46 V 838 M 951.86 838 H 1139.34 V 20 H 951.86 V 838 M 1208.26 838 H 1430.2 V 20 H 1208.26 V 838 "></path></clipPath><clipPath id="clip6_1wrapper"><path d="M -108.2 838 H 617.92 V 20 H -108.2 V 838 M 704.08 838 H 874.32 V 20 H 704.08 V 838 M 960.48 838 H 1130.72 V 20 H 960.48 V 838 M 1216.88 838 H 1430.2 V 20 H 1216.88 V 838 "></path></clipPath><clipPath id="clip4wrapper"><path d="M -108.2 838 H 96.51 V 20 H -108.2 V 838 M 199.89 838 H 352.91 V 20 H 199.89 V 838 M 456.29 838 H 609.31 V 20 H 456.29 V 838 M 712.69 838 H 865.71 V 20 H 712.69 V 838 M 969.09 838 H 1122.11 V 20 H 969.09 V 838 M 1225.49 838 H 1430.2 V 20 H 1225.49 V 838 "></path></clipPath><clipPath id="clip7wrapper"><path d="M -108.2 838 H 122.35 V 20 H -108.2 V 838 M 174.05 838 H 378.75 V 20 H 174.05 V 838 M 430.45 838 H 635.15 V 20 H 430.45 V 838 M 686.85 838 H 891.55 V 20 H 686.85 V 838 M 943.25 838 H 1147.95 V 20 H 943.25 V 838 M 1199.65 838 H 1430.2 V 20 H 1199.65 V 838 "></path></clipPath><clipPath id="clip5wrapper"><path d="M -108.2 838 H 105.12 V 20 H -108.2 V 838 M 191.28 838 H 361.52 V 20 H 191.28 V 838 M 447.68 838 H 617.92 V 20 H 447.68 V 838 M 704.08 838 H 874.32 V 20 H 704.08 V 838 M 960.48 838 H 1130.72 V 20 H 960.48 V 838 M 1216.88 838 H 1430.2 V 20 H 1216.88 V 838 "></path></clipPath><clipPath id="clip13wrapper"><path d="M -108.2 838 H 122.35 V 20 H -108.2 V 838 M 174.05 838 H 378.75 V 20 H 174.05 V 838 M 430.45 838 H 635.15 V 20 H 430.45 V 838 M 686.85 838 H 891.55 V 20 H 686.85 V 838 M 943.25 838 H 1147.95 V 20 H 943.25 V 838 M 1199.65 838 H 1430.2 V 20 H 1199.65 V 838 "></path></clipPath><clipPath id="clip12wrapper"><path d="M -108.2 838 H 113.74 V 20 H -108.2 V 838 M 182.66 838 H 370.14 V 20 H 182.66 V 838 M 439.06 838 H 626.54 V 20 H 439.06 V 838 M 695.46 838 H 882.94 V 20 H 695.46 V 838 M 951.86 838 H 1139.34 V 20 H 951.86 V 838 M 1208.26 838 H 1430.2 V 20 H 1208.26 V 838 "></path></clipPath><clipPath id="clip10wrapper"><path d="M -108.2 838 H 105.12 V 20 H -108.2 V 838 M 191.28 838 H 361.52 V 20 H 191.28 V 838 M 447.68 838 H 617.92 V 20 H 447.68 V 838 M 704.08 838 H 874.32 V 20 H 704.08 V 838 M 960.48 838 H 1130.72 V 20 H 960.48 V 838 M 1216.88 838 H 1430.2 V 20 H 1216.88 V 838 "></path></clipPath><clipPath id="clip9wrapper"><path d="M -108.2 838 H 96.51 V 20 H -108.2 V 838 M 199.89 838 H 352.91 V 20 H 199.89 V 838 M 456.29 838 H 609.31 V 20 H 456.29 V 838 M 712.69 838 H 865.71 V 20 H 712.69 V 838 M 969.09 838 H 1122.11 V 20 H 969.09 V 838 M 1225.49 838 H 1430.2 V 20 H 1225.49 V 838 "></path></clipPath><clipPath id="clip11wrapper"><path d="M -108.2 838 H 105.12 V 20 H -108.2 V 838 M 191.28 838 H 361.52 V 20 H 191.28 V 838 M 447.68 838 H 617.92 V 20 H 447.68 V 838 M 704.08 838 H 874.32 V 20 H 704.08 V 838 M 960.48 838 H 1130.72 V 20 H 960.48 V 838 M 1216.88 838 H 1430.2 V 20 H 1216.88 V 838 "></path></clipPath><clipPath id="clip21wrapper"><path d="M -108.2 838 H 122.35 V 20 H -108.2 V 838 M 174.05 838 H 378.75 V 20 H 174.05 V 838 M 430.45 838 H 635.15 V 20 H 430.45 V 838 M 686.85 838 H 891.55 V 20 H 686.85 V 838 M 943.25 838 H 1147.95 V 20 H 943.25 V 838 M 1199.65 838 H 1430.2 V 20 H 1199.65 V 838 "></path></clipPath><clipPath id="clip20wrapper"><path d="M -108.2 838 H 113.74 V 20 H -108.2 V 838 M 182.66 838 H 370.14 V 20 H 182.66 V 838 M 439.06 838 H 626.54 V 20 H 439.06 V 838 M 695.46 838 H 882.94 V 20 H 695.46 V 838 M 951.86 838 H 1139.34 V 20 H 951.86 V 838 M 1208.26 838 H 1430.2 V 20 H 1208.26 V 838 "></path></clipPath><clipPath id="clip16wrapper"><path d="M -108.2 838 H 105.12 V 20 H -108.2 V 838 M 191.28 838 H 361.52 V 20 H 191.28 V 838 M 447.68 838 H 617.92 V 20 H 447.68 V 838 M 704.08 838 H 874.32 V 20 H 704.08 V 838 M 960.48 838 H 1130.72 V 20 H 960.48 V 838 M 1216.88 838 H 1430.2 V 20 H 1216.88 V 838 "></path></clipPath><clipPath id="clip14wrapper"><path d="M -108.2 838 H 96.51 V 20 H -108.2 V 838 M 199.89 838 H 352.91 V 20 H 199.89 V 838 M 456.29 838 H 609.31 V 20 H 456.29 V 838 M 712.69 838 H 865.71 V 20 H 712.69 V 838 M 969.09 838 H 1122.11 V 20 H 969.09 V 838 M 1225.49 838 H 1430.2 V 20 H 1225.49 V 838 "></path></clipPath><clipPath id="clip15wrapper"><path d="M -108.2 838 H 96.51 V 20 H -108.2 V 838 M 199.89 838 H 352.91 V 20 H 199.89 V 838 M 456.29 838 H 609.31 V 20 H 456.29 V 838 M 712.69 838 H 865.71 V 20 H 712.69 V 838 M 969.09 838 H 1122.11 V 20 H 969.09 V 838 M 1225.49 838 H 1430.2 V 20 H 1225.49 V 838 "></path></clipPath><clipPath id="clip17wrapper"><path d="M -108.2 838 H 105.12 V 20 H -108.2 V 838 M 191.28 838 H 361.52 V 20 H 191.28 V 838 M 447.68 838 H 617.92 V 20 H 447.68 V 838 M 704.08 838 H 874.32 V 20 H 704.08 V 838 M 960.48 838 H 1130.72 V 20 H 960.48 V 838 M 1216.88 838 H 1430.2 V 20 H 1216.88 V 838 "></path></clipPath><clipPath id="clip18wrapper"><path d="M -108.2 838 H 105.12 V 20 H -108.2 V 838 M 191.28 838 H 361.52 V 20 H 191.28 V 838 M 447.68 838 H 617.92 V 20 H 447.68 V 838 M 704.08 838 H 874.32 V 20 H 704.08 V 838 M 960.48 838 H 1130.72 V 20 H 960.48 V 838 M 1216.88 838 H 1430.2 V 20 H 1216.88 V 838 "></path></clipPath><clipPath id="clip19wrapper"><path d="M -108.2 838 H 105.12 V 20 H -108.2 V 838 M 191.28 838 H 361.52 V 20 H 191.28 V 838 M 447.68 838 H 617.92 V 20 H 447.68 V 838 M 704.08 838 H 874.32 V 20 H 704.08 V 838 M 960.48 838 H 1130.72 V 20 H 960.48 V 838 M 1216.88 838 H 1430.2 V 20 H 1216.88 V 838 "></path></clipPath><clipPath id="clip47wrapper"><path d="M -108.2 838 H 122.35 V 20 H -108.2 V 838 M 174.05 838 H 404.6 V 20 H 174.05 V 838 "></path></clipPath><clipPath id="clip46wrapper"><path d="M -108.2 838 H 113.74 V 20 H -108.2 V 838 M 182.66 838 H 404.6 V 20 H 182.66 V 838 "></path></clipPath><clipPath id="clip24wrapper"><path d="M -108.2 838 H 105.12 V 20 H -108.2 V 838 M 191.28 838 H 404.6 V 20 H 191.28 V 838 "></path></clipPath><clipPath id="clip22wrapper"><path d="M -108.2 838 H 96.51 V 20 H -108.2 V 838 M 199.89 838 H 404.6 V 20 H 199.89 V 838 "></path></clipPath><clipPath id="clip23wrapper"><path d="M -108.2 838 H 96.51 V 20 H -108.2 V 838 M 199.89 838 H 404.6 V 20 H 199.89 V 838 "></path></clipPath><clipPath id="clip45wrapper"><path d="M -108.2 838 H 105.12 V 20 H -108.2 V 838 M 191.28 838 H 404.6 V 20 H 191.28 V 838 "></path></clipPath><clipPath id="clip44wrapper"><path d="M -108.2 838 H 96.51 V 20 H -108.2 V 838 M 199.89 838 H 404.6 V 20 H 199.89 V 838 "></path></clipPath><clipPath id="clip43wrapper"><path d="M -108.2 838 H 87.89 V 20 H -108.2 V 838 M 208.51 838 H 404.6 V 20 H 208.51 V 838 "></path></clipPath><clipPath id="clip35wrapper"><path d="M -108.2 838 H 79.28 V 20 H -108.2 V 838 M 217.12 838 H 404.6 V 20 H 217.12 V 838 "></path></clipPath><clipPath id="clip29wrapper"><path d="M -108.2 838 H 70.66 V 20 H -108.2 V 838 M 225.74 838 H 404.6 V 20 H 225.74 V 838 "></path></clipPath><clipPath id="clip27wrapper"><path d="M -108.2 838 H 62.05 V 20 H -108.2 V 838 M 234.35 838 H 404.6 V 20 H 234.35 V 838 "></path></clipPath><clipPath id="clip25wrapper"><path d="M -108.2 838 H 53.43 V 20 H -108.2 V 838 M 242.97 838 H 404.6 V 20 H 242.97 V 838 "></path></clipPath><clipPath id="clip26wrapper"><path d="M -108.2 838 H 53.43 V 20 H -108.2 V 838 M 242.97 838 H 404.6 V 20 H 242.97 V 838 "></path></clipPath><clipPath id="clip28wrapper"><path d="M -108.2 838 H 62.05 V 20 H -108.2 V 838 M 234.35 838 H 404.6 V 20 H 234.35 V 838 "></path></clipPath><clipPath id="clip34wrapper"><path d="M -108.2 838 H 70.66 V 20 H -108.2 V 838 M 225.74 838 H 404.6 V 20 H 225.74 V 838 "></path></clipPath><clipPath id="clip32wrapper"><path d="M -108.2 838 H 62.05 V 20 H -108.2 V 838 M 234.35 838 H 404.6 V 20 H 234.35 V 838 "></path></clipPath><clipPath id="clip30wrapper"><path d="M -108.2 838 H 53.43 V 20 H -108.2 V 838 M 242.97 838 H 404.6 V 20 H 242.97 V 838 "></path></clipPath><clipPath id="clip31wrapper"><path d="M -108.2 838 H 53.43 V 20 H -108.2 V 838 M 242.97 838 H 404.6 V 20 H 242.97 V 838 "></path></clipPath><clipPath id="clip33wrapper"><path d="M -108.2 838 H 62.05 V 20 H -108.2 V 838 M 234.35 838 H 404.6 V 20 H 234.35 V 838 "></path></clipPath><clipPath id="clip42wrapper"><path d="M -108.2 838 H 79.28 V 20 H -108.2 V 838 M 217.12 838 H 404.6 V 20 H 217.12 V 838 "></path></clipPath><clipPath id="clip41wrapper"><path d="M -108.2 838 H 70.66 V 20 H -108.2 V 838 M 225.74 838 H 404.6 V 20 H 225.74 V 838 "></path></clipPath><clipPath id="clip40wrapper"><path d="M -108.2 838 H 62.05 V 20 H -108.2 V 838 M 234.35 838 H 404.6 V 20 H 234.35 V 838 "></path></clipPath><clipPath id="clip36wrapper"><path d="M -108.2 838 H 53.43 V 20 H -108.2 V 838 M 242.97 838 H 404.6 V 20 H 242.97 V 838 "></path></clipPath><clipPath id="clip39wrapper"><path d="M -108.2 838 H 53.43 V 20 H -108.2 V 838 M 242.97 838 H 404.6 V 20 H 242.97 V 838 "></path></clipPath><clipPath id="clip37wrapper"><path d="M -108.2 838 H 44.82 V 20 H -108.2 V 838 M 251.58 838 H 404.6 V 20 H 251.58 V 838 "></path></clipPath><clipPath id="clip38wrapper"><path d="M -108.2 838 H 44.82 V 20 H -108.2 V 838 M 251.58 838 H 404.6 V 20 H 251.58 V 838 "></path></clipPath><clipPath id="clip53wrapper"><path d="M -108.2 838 H 122.35 V 20 H -108.2 V 838 M 174.05 838 H 378.75 V 20 H 174.05 V 838 M 430.45 838 H 635.15 V 20 H 430.45 V 838 M 686.85 838 H 891.55 V 20 H 686.85 V 838 M 943.25 838 H 1147.95 V 20 H 943.25 V 838 M 1199.65 838 H 1430.2 V 20 H 1199.65 V 838 "></path></clipPath><clipPath id="clip52wrapper"><path d="M -108.2 838 H 113.74 V 20 H -108.2 V 838 M 182.66 838 H 370.14 V 20 H 182.66 V 838 M 439.06 838 H 626.54 V 20 H 439.06 V 838 M 695.46 838 H 882.94 V 20 H 695.46 V 838 M 951.86 838 H 1139.34 V 20 H 951.86 V 838 M 1208.26 838 H 1430.2 V 20 H 1208.26 V 838 "></path></clipPath><clipPath id="clip50wrapper"><path d="M -108.2 838 H 105.12 V 20 H -108.2 V 838 M 191.28 838 H 361.52 V 20 H 191.28 V 838 M 447.68 838 H 617.92 V 20 H 447.68 V 838 M 704.08 838 H 874.32 V 20 H 704.08 V 838 M 960.48 838 H 1130.72 V 20 H 960.48 V 838 M 1216.88 838 H 1430.2 V 20 H 1216.88 V 838 "></path></clipPath><clipPath id="clip48wrapper"><path d="M -108.2 838 H 96.51 V 20 H -108.2 V 838 M 199.89 838 H 352.91 V 20 H 199.89 V 838 M 456.29 838 H 609.31 V 20 H 456.29 V 838 M 712.69 838 H 865.71 V 20 H 712.69 V 838 M 969.09 838 H 1122.11 V 20 H 969.09 V 838 M 1225.49 838 H 1430.2 V 20 H 1225.49 V 838 "></path></clipPath><clipPath id="clip49wrapper"><path d="M -108.2 838 H 96.51 V 20 H -108.2 V 838 M 199.89 838 H 352.91 V 20 H 199.89 V 838 M 456.29 838 H 609.31 V 20 H 456.29 V 838 M 712.69 838 H 865.71 V 20 H 712.69 V 838 M 969.09 838 H 1122.11 V 20 H 969.09 V 838 M 1225.49 838 H 1430.2 V 20 H 1225.49 V 838 "></path></clipPath><clipPath id="clip51wrapper"><path d="M -108.2 838 H 105.12 V 20 H -108.2 V 838 M 191.28 838 H 361.52 V 20 H 191.28 V 838 M 447.68 838 H 617.92 V 20 H 447.68 V 838 M 704.08 838 H 874.32 V 20 H 704.08 V 838 M 960.48 838 H 1130.72 V 20 H 960.48 V 838 M 1216.88 838 H 1430.2 V 20 H 1216.88 V 838 "></path></clipPath><clipPath id="clip56wrapper"><path d="M -108.2 838 H 139.58 V 20 H -108.2 V 838 M 156.82 838 H 395.98 V 20 H 156.82 V 838 M 413.22 838 H 652.38 V 20 H 413.22 V 838 M 669.62 838 H 908.78 V 20 H 669.62 V 838 M 926.02 838 H 1165.18 V 20 H 926.02 V 838 M 1182.42 838 H 1430.2 V 20 H 1182.42 V 838 "></path></clipPath><clipPath id="clip57wrapper"><path d="M -108.2 838 H 139.58 V 20 H -108.2 V 838 M 156.82 838 H 404.6 V 20 H 156.82 V 838 "></path></clipPath><clipPath id="clip4_1wrapper"><path d="M -108.2 838 H 609.31 V 20 H -108.2 V 838 M 712.69 838 H 865.71 V 20 H 712.69 V 838 M 969.09 838 H 1122.11 V 20 H 969.09 V 838 M 1225.49 838 H 1430.2 V 20 H 1225.49 V 838 "></path></clipPath><clipPath id="clip5_1wrapper"><path d="M -108.2 838 H 609.31 V 20 H -108.2 V 838 M 712.69 838 H 865.71 V 20 H 712.69 V 838 M 969.09 838 H 1122.11 V 20 H 969.09 V 838 M 1225.49 838 H 1430.2 V 20 H 1225.49 V 838 "></path></clipPath><clipPath id="clip4_2wrapper"><path d="M -108.2 838 H 908.78 V 20 H -108.2 V 838 M 926.02 838 H 1165.18 V 20 H 926.02 V 838 M 1182.42 838 H 1430.2 V 20 H 1182.42 V 838 "></path></clipPath><clipPath id="clip0_1wrapper"><path d="M -108.2 838 H 900.17 V 20 H -108.2 V 838 M 934.63 838 H 1156.57 V 20 H 934.63 V 838 M 1191.03 838 H 1430.2 V 20 H 1191.03 V 838 "></path></clipPath><clipPath id="clip1_1wrapper"><path d="M -108.2 838 H 900.17 V 20 H -108.2 V 838 M 934.63 838 H 1156.57 V 20 H 934.63 V 838 M 1191.03 838 H 1430.2 V 20 H 1191.03 V 838 "></path></clipPath><clipPath id="clip3_2wrapper"><path d="M -108.2 838 H 900.17 V 20 H -108.2 V 838 M 934.63 838 H 1156.57 V 20 H 934.63 V 838 M 1191.03 838 H 1430.2 V 20 H 1191.03 V 838 "></path></clipPath><clipPath id="clip2_1wrapper"><path d="M -108.2 838 H 891.55 V 20 H -108.2 V 838 M 943.25 838 H 1147.95 V 20 H 943.25 V 838 M 1199.65 838 H 1430.2 V 20 H 1199.65 V 838 "></path></clipPath></defs><g class="pathContainer" stroke-width="3"><g class="depthLayer depth-0" filter="url(#FILTER_24)"><g class="clipLayer"><path class="stream" clip-path="url(#clip58wrapper)" id="stream58wrapper" paint-order="stroke" d="M 148.2 20 H 89.23 V 838 H 207.17 C 276.4 838, 276.4 656.39, 345.63 656.39 H 463.57 C 532.8 656.39, 532.8 698.47, 602.03 698.47 H 719.97 C 789.2 698.47, 789.2 736.12, 858.43 736.12 H 976.37 C 1045.6 736.12, 1045.6 736.12, 1114.83 736.12 H 1232.77 V 121.88 H 1114.83 C 1045.6 121.88, 1045.6 121.88, 976.37 121.88 H 858.43 C 789.2 121.88, 789.2 159.53, 719.97 159.53 H 602.03 C 532.8 159.53, 532.8 201.61, 463.57 201.61 H 345.63 C 276.4 201.61, 276.4 20, 207.17 20 H 148.2 " shape-rendering="geometricPrecision" style="fill: rgb(127, 39, 4);"></path></g></g><g class="depthLayer depth-1" filter="url(#FILTER_24)"><g class="clipLayer"><path class="stream" clip-path="url(#clip55wrapper)" id="stream55wrapper" paint-order="stroke" d="M 148.2 62.82 H 89.23 V 833.57 H 207.17 C 276.4 833.57, 276.4 651.96, 345.63 651.96 H 463.57 C 532.8 651.96, 532.8 694.04, 602.03 694.04 H 719.97 C 789.2 694.04, 789.2 656.39, 858.43 656.39 H 976.37 C 1045.6 656.39, 1045.6 572.22, 1114.83 572.22 H 1232.77 V 145.51 H 1114.83 C 1045.6 145.51, 1045.6 145.51, 976.37 145.51 H 858.43 C 789.2 145.51, 789.2 183.16, 719.97 183.16 H 602.03 C 532.8 183.16, 532.8 225.24, 463.57 225.24 H 345.63 C 276.4 225.24, 276.4 62.82, 207.17 62.82 H 148.2 " shape-rendering="geometricPrecision" style="fill: rgb(154, 49, 3);"></path><path class="stream" clip-path="url(#clip56wrapper)" id="stream56wrapper" paint-order="stroke" d="M 148.2 43.62 H 89.23 V 58.39 H 207.17 C 276.4 58.39, 276.4 220.81, 345.63 220.81 H 463.57 C 532.8 220.81, 532.8 178.73, 602.03 178.73 H 719.97 C 789.2 178.73, 789.2 141.08, 858.43 141.08 H 976.37 C 1045.6 141.08, 1045.6 141.08, 1114.83 141.08 H 1232.77 V 126.31 H 1114.83 C 1045.6 126.31, 1045.6 126.31, 976.37 126.31 H 858.43 C 789.2 126.31, 789.2 163.96, 719.97 163.96 H 602.03 C 532.8 163.96, 532.8 206.04, 463.57 206.04 H 345.63 C 276.4 206.04, 276.4 43.62, 207.17 43.62 H 148.2 " shape-rendering="geometricPrecision" style="fill: rgb(154, 49, 3);"></path><path class="stream" clip-path="url(#clip57wrapper)" id="stream57wrapper" paint-order="stroke" d="M 148.2 24.43 H 89.23 V 39.19 H 207.17 C 222.98 39.19, 222.98 24.43, 207.17 24.43 H 148.2 " shape-rendering="geometricPrecision" style="fill: rgb(154, 49, 3);"></path><path class="stream" clip-path="url(#clip4_2wrapper)" id="stream4_2wrapper" paint-order="stroke" d="M 917.4 660.82 H 858.43 C 823.79 660.82, 823.79 731.69, 858.43 731.69 H 976.37 C 1045.6 731.69, 1045.6 731.69, 1114.83 731.69 H 1232.77 V 576.65 H 1114.83 C 1045.6 576.65, 1045.6 660.82, 976.37 660.82 H 917.4 " shape-rendering="geometricPrecision" style="fill: rgb(154, 49, 3);"></path></g></g><g class="depthLayer depth-2" filter="url(#FILTER_24)"><g class="clipLayer"><path class="stream" clip-path="url(#clip0wrapper)" id="stream0wrapper" paint-order="stroke" d="M 148.2 814.38 H 89.23 V 829.14 H 207.17 C 276.4 829.14, 276.4 647.53, 345.63 647.53 H 463.57 C 532.8 647.53, 532.8 689.61, 602.03 689.61 H 719.97 C 789.2 689.61, 789.2 651.96, 858.43 651.96 H 976.37 C 1045.6 651.96, 1045.6 567.79, 1114.83 567.79 H 1232.77 V 553.03 H 1114.83 C 1045.6 553.03, 1045.6 637.19, 976.37 637.19 H 858.43 C 789.2 637.19, 789.2 674.84, 719.97 674.84 H 602.03 C 532.8 674.84, 532.8 632.76, 463.57 632.76 H 345.63 C 276.4 632.76, 276.4 814.38, 207.17 814.38 H 148.2 " shape-rendering="geometricPrecision" style="fill: rgb(183, 60, 2);"></path><path class="stream" clip-path="url(#clip1wrapper)" id="stream1wrapper" paint-order="stroke" d="M 148.2 795.18 H 89.23 V 809.95 H 207.17 C 276.4 809.95, 276.4 628.33, 345.63 628.33 H 463.57 C 532.8 628.33, 532.8 670.41, 602.03 670.41 H 719.97 C 789.2 670.41, 789.2 632.76, 858.43 632.76 H 976.37 C 1045.6 632.76, 1045.6 548.6, 1114.83 548.6 H 1232.77 V 533.83 H 1114.83 C 1045.6 533.83, 1045.6 618, 976.37 618 H 858.43 C 789.2 618, 789.2 655.65, 719.97 655.65 H 602.03 C 532.8 655.65, 532.8 613.57, 463.57 613.57 H 345.63 C 276.4 613.57, 276.4 795.18, 207.17 795.18 H 148.2 " shape-rendering="geometricPrecision" style="fill: rgb(183, 60, 2);"></path><path class="stream" clip-path="url(#clip2wrapper)" id="stream2wrapper" paint-order="stroke" d="M 148.2 775.99 H 89.23 V 790.75 H 207.17 C 276.4 790.75, 276.4 609.14, 345.63 609.14 H 463.57 C 532.8 609.14, 532.8 651.22, 602.03 651.22 H 719.97 C 789.2 651.22, 789.2 613.57, 858.43 613.57 H 976.37 C 1045.6 613.57, 1045.6 529.4, 1114.83 529.4 H 1232.77 V 514.64 H 1114.83 C 1045.6 514.64, 1045.6 598.8, 976.37 598.8 H 858.43 C 789.2 598.8, 789.2 636.45, 719.97 636.45 H 602.03 C 532.8 636.45, 532.8 594.37, 463.57 594.37 H 345.63 C 276.4 594.37, 276.4 775.99, 207.17 775.99 H 148.2 " shape-rendering="geometricPrecision" style="fill: rgb(183, 60, 2);"></path><path class="stream" clip-path="url(#clip54wrapper)" id="stream54wrapper" paint-order="stroke" d="M 148.2 67.25 H 89.23 V 771.56 H 207.17 C 276.4 771.56, 276.4 589.94, 345.63 589.94 H 463.57 C 532.8 589.94, 532.8 632.02, 602.03 632.02 H 719.97 C 789.2 632.02, 789.2 594.37, 858.43 594.37 H 976.37 C 1045.6 594.37, 1045.6 510.21, 1114.83 510.21 H 1232.77 V 149.94 H 1114.83 C 1045.6 149.94, 1045.6 149.94, 976.37 149.94 H 858.43 C 789.2 149.94, 789.2 187.59, 719.97 187.59 H 602.03 C 532.8 187.59, 532.8 229.67, 463.57 229.67 H 345.63 C 276.4 229.67, 276.4 67.25, 207.17 67.25 H 148.2 " shape-rendering="geometricPrecision" style="fill: rgb(183, 60, 2);"></path><path class="stream" clip-path="url(#clip0_1wrapper)" id="stream0_1wrapper" paint-order="stroke" d="M 917.4 712.49 H 858.43 C 842.62 712.49, 842.62 727.26, 858.43 727.26 H 976.37 C 1045.6 727.26, 1045.6 727.26, 1114.83 727.26 H 1232.77 V 712.49 H 1114.83 C 1045.6 712.49, 1045.6 712.49, 976.37 712.49 H 917.4 " shape-rendering="geometricPrecision" style="fill: rgb(183, 60, 2);"></path><path class="stream" clip-path="url(#clip1_1wrapper)" id="stream1_1wrapper" paint-order="stroke" d="M 917.4 693.3 H 858.43 C 842.62 693.3, 842.62 708.06, 858.43 708.06 H 976.37 C 1045.6 708.06, 1045.6 708.06, 1114.83 708.06 H 1232.77 V 693.3 H 1114.83 C 1045.6 693.3, 1045.6 693.3, 976.37 693.3 H 917.4 " shape-rendering="geometricPrecision" style="fill: rgb(183, 60, 2);"></path><path class="stream" clip-path="url(#clip3_2wrapper)" id="stream3_2wrapper" paint-order="stroke" d="M 917.4 665.25 H 858.43 C 838.43 665.25, 838.43 688.87, 858.43 688.87 H 976.37 C 1045.6 688.87, 1045.6 688.87, 1114.83 688.87 H 1232.77 V 581.08 H 1114.83 C 1045.6 581.08, 1045.6 665.25, 976.37 665.25 H 917.4 " shape-rendering="geometricPrecision" style="fill: rgb(183, 60, 2);"></path></g></g><g class="depthLayer depth-3" filter="url(#FILTER_24)"></g><g class="depthLayer depth-4" filter="url(#FILTER_24)"></g><g class="depthLayer depth-5" filter="url(#FILTER_24)"></g><g class="depthLayer depth-6" filter="url(#FILTER_24)"></g><g class="depthLayer depth-7" filter="url(#FILTER_24)"></g><g class="depthLayer depth-8" filter="url(#FILTER_24)"></g><g class="depthLayer depth-9" filter="url(#FILTER_24)"></g><g class="depthLayer depth-10" filter="url(#FILTER_24)"></g><g class="depthLayer depth-11" filter="url(#FILTER_24)"></g><g class="depthLayer depth-12" filter="url(#FILTER_24)"></g><g class="depthLayer depth-3" filter="url(#FILTER_24)"><g class="clipLayer"><path class="stream" clip-path="url(#clip7wrapper)" id="stream7wrapper" paint-order="stroke" d="M 148.2 706.59 H 89.23 V 767.13 H 207.17 C 276.4 767.13, 276.4 585.51, 345.63 585.51 H 463.57 C 532.8 585.51, 532.8 543.43, 602.03 543.43 H 719.97 C 789.2 543.43, 789.2 505.78, 858.43 505.78 H 976.37 C 1045.6 505.78, 1045.6 505.78, 1114.83 505.78 H 1232.77 V 445.24 H 1114.83 C 1045.6 445.24, 1045.6 445.24, 976.37 445.24 H 858.43 C 789.2 445.24, 789.2 482.89, 719.97 482.89 H 602.03 C 532.8 482.89, 532.8 524.97, 463.57 524.97 H 345.63 C 276.4 524.97, 276.4 706.59, 207.17 706.59 H 148.2 " shape-rendering="geometricPrecision" style="fill: rgb(213, 75, 4);"></path><path class="stream" clip-path="url(#clip13wrapper)" id="stream13wrapper" paint-order="stroke" d="M 148.2 622.43 H 89.23 V 702.16 H 207.17 C 276.4 702.16, 276.4 520.55, 345.63 520.55 H 463.57 C 532.8 520.55, 532.8 478.46, 602.03 478.46 H 719.97 C 789.2 478.46, 789.2 440.81, 858.43 440.81 H 976.37 C 1045.6 440.81, 1045.6 440.81, 1114.83 440.81 H 1232.77 V 361.08 H 1114.83 C 1045.6 361.08, 1045.6 361.08, 976.37 361.08 H 858.43 C 789.2 361.08, 789.2 398.73, 719.97 398.73 H 602.03 C 532.8 398.73, 532.8 440.81, 463.57 440.81 H 345.63 C 276.4 440.81, 276.4 622.43, 207.17 622.43 H 148.2 " shape-rendering="geometricPrecision" style="fill: rgb(213, 75, 4);"></path><path class="stream" clip-path="url(#clip21wrapper)" id="stream21wrapper" paint-order="stroke" d="M 148.2 499.87 H 89.23 V 618 H 207.17 C 276.4 618, 276.4 436.38, 345.63 436.38 H 463.57 C 532.8 436.38, 532.8 394.3, 602.03 394.3 H 719.97 C 789.2 394.3, 789.2 356.65, 858.43 356.65 H 976.37 C 1045.6 356.65, 1045.6 356.65, 1114.83 356.65 H 1232.77 V 238.53 H 1114.83 C 1045.6 238.53, 1045.6 238.53, 976.37 238.53 H 858.43 C 789.2 238.53, 789.2 276.18, 719.97 276.18 H 602.03 C 532.8 276.18, 532.8 318.26, 463.57 318.26 H 345.63 C 276.4 318.26, 276.4 499.87, 207.17 499.87 H 148.2 " shape-rendering="geometricPrecision" style="fill: rgb(213, 75, 4);"></path><path class="stream" clip-path="url(#clip47wrapper)" id="stream47wrapper" paint-order="stroke" d="M 148.2 155.84 H 89.23 V 495.44 H 207.17 C 283 495.44, 283 155.84, 207.17 155.84 H 148.2 " shape-rendering="geometricPrecision" style="fill: rgb(213, 75, 4);"></path><path class="stream" clip-path="url(#clip53wrapper)" id="stream53wrapper" paint-order="stroke" d="M 148.2 71.68 H 89.23 V 151.41 H 207.17 C 276.4 151.41, 276.4 313.83, 345.63 313.83 H 463.57 C 532.8 313.83, 532.8 271.75, 602.03 271.75 H 719.97 C 789.2 271.75, 789.2 234.1, 858.43 234.1 H 976.37 C 1045.6 234.1, 1045.6 234.1, 1114.83 234.1 H 1232.77 V 154.36 H 1114.83 C 1045.6 154.36, 1045.6 154.36, 976.37 154.36 H 858.43 C 789.2 154.36, 789.2 192.02, 719.97 192.02 H 602.03 C 532.8 192.02, 532.8 234.1, 463.57 234.1 H 345.63 C 276.4 234.1, 276.4 71.68, 207.17 71.68 H 148.2 " shape-rendering="geometricPrecision" style="fill: rgb(213, 75, 4);"></path><path class="stream" clip-path="url(#clip8_1wrapper)" id="stream8_1wrapper" paint-order="stroke" d="M 661 547.86 H 602.03 C 565.29 547.86, 565.29 627.59, 602.03 627.59 H 719.97 C 789.2 627.59, 789.2 589.94, 858.43 589.94 H 976.37 C 1045.6 589.94, 1045.6 684.44, 1114.83 684.44 H 1232.77 V 604.71 H 1114.83 C 1045.6 604.71, 1045.6 510.21, 976.37 510.21 H 858.43 C 789.2 510.21, 789.2 547.86, 719.97 547.86 H 661 " shape-rendering="geometricPrecision" style="fill: rgb(213, 75, 4);"></path><path class="stream" clip-path="url(#clip2_1wrapper)" id="stream2_1wrapper" paint-order="stroke" d="M 917.4 669.68 H 858.43 C 842.62 669.68, 842.62 684.44, 858.43 684.44 H 976.37 C 1045.6 684.44, 1045.6 600.28, 1114.83 600.28 H 1232.77 V 585.51 H 1114.83 C 1045.6 585.51, 1045.6 669.68, 976.37 669.68 H 917.4 " shape-rendering="geometricPrecision" style="fill: rgb(213, 75, 4);"></path></g></g><g class="depthLayer depth-4" filter="url(#FILTER_24)"><g class="clipLayer"><path class="stream" clip-path="url(#clip6wrapper)" id="stream6wrapper" paint-order="stroke" d="M 148.2 711.02 H 89.23 V 762.7 H 207.17 C 276.4 762.7, 276.4 581.08, 345.63 581.08 H 463.57 C 532.8 581.08, 532.8 539, 602.03 539 H 719.97 C 789.2 539, 789.2 501.35, 858.43 501.35 H 976.37 C 1045.6 501.35, 1045.6 501.35, 1114.83 501.35 H 1232.77 V 449.67 H 1114.83 C 1045.6 449.67, 1045.6 449.67, 976.37 449.67 H 858.43 C 789.2 449.67, 789.2 487.32, 719.97 487.32 H 602.03 C 532.8 487.32, 532.8 529.4, 463.57 529.4 H 345.63 C 276.4 529.4, 276.4 711.02, 207.17 711.02 H 148.2 " shape-rendering="geometricPrecision" style="fill: rgb(232, 94, 14);"></path><path class="stream" clip-path="url(#clip12wrapper)" id="stream12wrapper" paint-order="stroke" d="M 148.2 626.86 H 89.23 V 697.73 H 207.17 C 276.4 697.73, 276.4 516.12, 345.63 516.12 H 463.57 C 532.8 516.12, 532.8 474.03, 602.03 474.03 H 719.97 C 789.2 474.03, 789.2 436.38, 858.43 436.38 H 976.37 C 1045.6 436.38, 1045.6 436.38, 1114.83 436.38 H 1232.77 V 365.51 H 1114.83 C 1045.6 365.51, 1045.6 365.51, 976.37 365.51 H 858.43 C 789.2 365.51, 789.2 403.16, 719.97 403.16 H 602.03 C 532.8 403.16, 532.8 445.24, 463.57 445.24 H 345.63 C 276.4 445.24, 276.4 626.86, 207.17 626.86 H 148.2 " shape-rendering="geometricPrecision" style="fill: rgb(232, 94, 14);"></path><path class="stream" clip-path="url(#clip20wrapper)" id="stream20wrapper" paint-order="stroke" d="M 148.2 504.3 H 89.23 V 613.57 H 207.17 C 276.4 613.57, 276.4 431.95, 345.63 431.95 H 463.57 C 532.8 431.95, 532.8 389.87, 602.03 389.87 H 719.97 C 789.2 389.87, 789.2 352.22, 858.43 352.22 H 976.37 C 1045.6 352.22, 1045.6 352.22, 1114.83 352.22 H 1232.77 V 242.96 H 1114.83 C 1045.6 242.96, 1045.6 242.96, 976.37 242.96 H 858.43 C 789.2 242.96, 789.2 280.61, 719.97 280.61 H 602.03 C 532.8 280.61, 532.8 322.69, 463.57 322.69 H 345.63 C 276.4 322.69, 276.4 504.3, 207.17 504.3 H 148.2 " shape-rendering="geometricPrecision" style="fill: rgb(232, 94, 14);"></path><path class="stream" clip-path="url(#clip46wrapper)" id="stream46wrapper" paint-order="stroke" d="M 148.2 160.27 H 89.23 V 491.01 H 207.17 C 282.01 491.01, 282.01 160.27, 207.17 160.27 H 148.2 " shape-rendering="geometricPrecision" style="fill: rgb(232, 94, 14);"></path><path class="stream" clip-path="url(#clip52wrapper)" id="stream52wrapper" paint-order="stroke" d="M 148.2 76.11 H 89.23 V 146.98 H 207.17 C 276.4 146.98, 276.4 309.4, 345.63 309.4 H 463.57 C 532.8 309.4, 532.8 267.32, 602.03 267.32 H 719.97 C 789.2 267.32, 789.2 229.67, 858.43 229.67 H 976.37 C 1045.6 229.67, 1045.6 229.67, 1114.83 229.67 H 1232.77 V 158.79 H 1114.83 C 1045.6 158.79, 1045.6 158.79, 976.37 158.79 H 858.43 C 789.2 158.79, 789.2 196.45, 719.97 196.45 H 602.03 C 532.8 196.45, 532.8 238.53, 463.57 238.53 H 345.63 C 276.4 238.53, 276.4 76.11, 207.17 76.11 H 148.2 " shape-rendering="geometricPrecision" style="fill: rgb(232, 94, 14);"></path><path class="stream" clip-path="url(#clip3_1wrapper)" id="stream3_1wrapper" paint-order="stroke" d="M 661 608.4 H 602.03 C 586.22 608.4, 586.22 623.16, 602.03 623.16 H 719.97 C 789.2 623.16, 789.2 585.51, 858.43 585.51 H 976.37 C 1045.6 585.51, 1045.6 680.01, 1114.83 680.01 H 1232.77 V 665.25 H 1114.83 C 1045.6 665.25, 1045.6 570.75, 976.37 570.75 H 858.43 C 789.2 570.75, 789.2 608.4, 719.97 608.4 H 661 " shape-rendering="geometricPrecision" style="fill: rgb(232, 94, 14);"></path><path class="stream" clip-path="url(#clip7_1wrapper)" id="stream7_1wrapper" paint-order="stroke" d="M 661 552.29 H 602.03 C 572.45 552.29, 572.45 603.97, 602.03 603.97 H 719.97 C 789.2 603.97, 789.2 566.32, 858.43 566.32 H 976.37 C 1045.6 566.32, 1045.6 660.82, 1114.83 660.82 H 1232.77 V 609.14 H 1114.83 C 1045.6 609.14, 1045.6 514.64, 976.37 514.64 H 858.43 C 789.2 514.64, 789.2 552.29, 719.97 552.29 H 661 " shape-rendering="geometricPrecision" style="fill: rgb(232, 94, 14);"></path></g></g><g class="depthLayer depth-5" filter="url(#FILTER_24)"><g class="clipLayer"><path class="stream" clip-path="url(#clip3wrapper)" id="stream3wrapper" paint-order="stroke" d="M 148.2 743.5 H 89.23 V 758.27 H 207.17 C 276.4 758.27, 276.4 576.65, 345.63 576.65 H 463.57 C 532.8 576.65, 532.8 534.57, 602.03 534.57 H 719.97 C 789.2 534.57, 789.2 496.92, 858.43 496.92 H 976.37 C 1045.6 496.92, 1045.6 496.92, 1114.83 496.92 H 1232.77 V 482.16 H 1114.83 C 1045.6 482.16, 1045.6 482.16, 976.37 482.16 H 858.43 C 789.2 482.16, 789.2 519.81, 719.97 519.81 H 602.03 C 532.8 519.81, 532.8 561.89, 463.57 561.89 H 345.63 C 276.4 561.89, 276.4 743.5, 207.17 743.5 H 148.2 " shape-rendering="geometricPrecision" style="fill: rgb(244, 117, 34);"></path><path class="stream" clip-path="url(#clip5wrapper)" id="stream5wrapper" paint-order="stroke" d="M 148.2 715.45 H 89.23 V 739.07 H 207.17 C 276.4 739.07, 276.4 557.46, 345.63 557.46 H 463.57 C 532.8 557.46, 532.8 515.38, 602.03 515.38 H 719.97 C 789.2 515.38, 789.2 477.73, 858.43 477.73 H 976.37 C 1045.6 477.73, 1045.6 477.73, 1114.83 477.73 H 1232.77 V 454.1 H 1114.83 C 1045.6 454.1, 1045.6 454.1, 976.37 454.1 H 858.43 C 789.2 454.1, 789.2 491.75, 719.97 491.75 H 602.03 C 532.8 491.75, 532.8 533.83, 463.57 533.83 H 345.63 C 276.4 533.83, 276.4 715.45, 207.17 715.45 H 148.2 " shape-rendering="geometricPrecision" style="fill: rgb(244, 117, 34);"></path><path class="stream" clip-path="url(#clip10wrapper)" id="stream10wrapper" paint-order="stroke" d="M 148.2 650.48 H 89.23 V 693.3 H 207.17 C 276.4 693.3, 276.4 511.69, 345.63 511.69 H 463.57 C 532.8 511.69, 532.8 469.6, 602.03 469.6 H 719.97 C 789.2 469.6, 789.2 431.95, 858.43 431.95 H 976.37 C 1045.6 431.95, 1045.6 431.95, 1114.83 431.95 H 1232.77 V 389.13 H 1114.83 C 1045.6 389.13, 1045.6 389.13, 976.37 389.13 H 858.43 C 789.2 389.13, 789.2 426.79, 719.97 426.79 H 602.03 C 532.8 426.79, 532.8 468.87, 463.57 468.87 H 345.63 C 276.4 468.87, 276.4 650.48, 207.17 650.48 H 148.2 " shape-rendering="geometricPrecision" style="fill: rgb(244, 117, 34);"></path><path class="stream" clip-path="url(#clip11wrapper)" id="stream11wrapper" paint-order="stroke" d="M 148.2 631.29 H 89.23 V 646.05 H 207.17 C 276.4 646.05, 276.4 464.44, 345.63 464.44 H 463.57 C 532.8 464.44, 532.8 422.36, 602.03 422.36 H 719.97 C 789.2 422.36, 789.2 384.7, 858.43 384.7 H 976.37 C 1045.6 384.7, 1045.6 384.7, 1114.83 384.7 H 1232.77 V 369.94 H 1114.83 C 1045.6 369.94, 1045.6 369.94, 976.37 369.94 H 858.43 C 789.2 369.94, 789.2 407.59, 719.97 407.59 H 602.03 C 532.8 407.59, 532.8 449.67, 463.57 449.67 H 345.63 C 276.4 449.67, 276.4 631.29, 207.17 631.29 H 148.2 " shape-rendering="geometricPrecision" style="fill: rgb(244, 117, 34);"></path><path class="stream" clip-path="url(#clip16wrapper)" id="stream16wrapper" paint-order="stroke" d="M 148.2 566.32 H 89.23 V 609.14 H 207.17 C 276.4 609.14, 276.4 427.52, 345.63 427.52 H 463.57 C 532.8 427.52, 532.8 385.44, 602.03 385.44 H 719.97 C 789.2 385.44, 789.2 347.79, 858.43 347.79 H 976.37 C 1045.6 347.79, 1045.6 347.79, 1114.83 347.79 H 1232.77 V 304.97 H 1114.83 C 1045.6 304.97, 1045.6 304.97, 976.37 304.97 H 858.43 C 789.2 304.97, 789.2 342.62, 719.97 342.62 H 602.03 C 532.8 342.62, 532.8 384.7, 463.57 384.7 H 345.63 C 276.4 384.7, 276.4 566.32, 207.17 566.32 H 148.2 " shape-rendering="geometricPrecision" style="fill: rgb(244, 117, 34);"></path><path class="stream" clip-path="url(#clip17wrapper)" id="stream17wrapper" paint-order="stroke" d="M 148.2 547.12 H 89.23 V 561.89 H 207.17 C 276.4 561.89, 276.4 380.27, 345.63 380.27 H 463.57 C 532.8 380.27, 532.8 338.19, 602.03 338.19 H 719.97 C 789.2 338.19, 789.2 300.54, 858.43 300.54 H 976.37 C 1045.6 300.54, 1045.6 300.54, 1114.83 300.54 H 1232.77 V 285.78 H 1114.83 C 1045.6 285.78, 1045.6 285.78, 976.37 285.78 H 858.43 C 789.2 285.78, 789.2 323.43, 719.97 323.43 H 602.03 C 532.8 323.43, 532.8 365.51, 463.57 365.51 H 345.63 C 276.4 365.51, 276.4 547.12, 207.17 547.12 H 148.2 " shape-rendering="geometricPrecision" style="fill: rgb(244, 117, 34);"></path><path class="stream" clip-path="url(#clip18wrapper)" id="stream18wrapper" paint-order="stroke" d="M 148.2 527.93 H 89.23 V 542.69 H 207.17 C 276.4 542.69, 276.4 361.08, 345.63 361.08 H 463.57 C 532.8 361.08, 532.8 319, 602.03 319 H 719.97 C 789.2 319, 789.2 281.35, 858.43 281.35 H 976.37 C 1045.6 281.35, 1045.6 281.35, 1114.83 281.35 H 1232.77 V 266.58 H 1114.83 C 1045.6 266.58, 1045.6 266.58, 976.37 266.58 H 858.43 C 789.2 266.58, 789.2 304.23, 719.97 304.23 H 602.03 C 532.8 304.23, 532.8 346.31, 463.57 346.31 H 345.63 C 276.4 346.31, 276.4 527.93, 207.17 527.93 H 148.2 " shape-rendering="geometricPrecision" style="fill: rgb(244, 117, 34);"></path><path class="stream" clip-path="url(#clip19wrapper)" id="stream19wrapper" paint-order="stroke" d="M 148.2 508.73 H 89.23 V 523.5 H 207.17 C 276.4 523.5, 276.4 341.88, 345.63 341.88 H 463.57 C 532.8 341.88, 532.8 299.8, 602.03 299.8 H 719.97 C 789.2 299.8, 789.2 262.15, 858.43 262.15 H 976.37 C 1045.6 262.15, 1045.6 262.15, 1114.83 262.15 H 1232.77 V 247.39 H 1114.83 C 1045.6 247.39, 1045.6 247.39, 976.37 247.39 H 858.43 C 789.2 247.39, 789.2 285.04, 719.97 285.04 H 602.03 C 532.8 285.04, 532.8 327.12, 463.57 327.12 H 345.63 C 276.4 327.12, 276.4 508.73, 207.17 508.73 H 148.2 " shape-rendering="geometricPrecision" style="fill: rgb(244, 117, 34);"></path><path class="stream" clip-path="url(#clip24wrapper)" id="stream24wrapper" paint-order="stroke" d="M 148.2 443.77 H 89.23 V 486.58 H 207.17 C 234.1 486.58, 234.1 443.77, 207.17 443.77 H 148.2 " shape-rendering="geometricPrecision" style="fill: rgb(244, 117, 34);"></path><path class="stream" clip-path="url(#clip45wrapper)" id="stream45wrapper" paint-order="stroke" d="M 148.2 164.7 H 89.23 V 439.34 H 207.17 C 275.36 439.34, 275.36 164.7, 207.17 164.7 H 148.2 " shape-rendering="geometricPrecision" style="fill: rgb(244, 117, 34);"></path><path class="stream" clip-path="url(#clip50wrapper)" id="stream50wrapper" paint-order="stroke" d="M 148.2 99.73 H 89.23 V 142.55 H 207.17 C 276.4 142.55, 276.4 304.97, 345.63 304.97 H 463.57 C 532.8 304.97, 532.8 262.89, 602.03 262.89 H 719.97 C 789.2 262.89, 789.2 225.24, 858.43 225.24 H 976.37 C 1045.6 225.24, 1045.6 225.24, 1114.83 225.24 H 1232.77 V 182.42 H 1114.83 C 1045.6 182.42, 1045.6 182.42, 976.37 182.42 H 858.43 C 789.2 182.42, 789.2 220.07, 719.97 220.07 H 602.03 C 532.8 220.07, 532.8 262.15, 463.57 262.15 H 345.63 C 276.4 262.15, 276.4 99.73, 207.17 99.73 H 148.2 " shape-rendering="geometricPrecision" style="fill: rgb(244, 117, 34);"></path><path class="stream" clip-path="url(#clip51wrapper)" id="stream51wrapper" paint-order="stroke" d="M 148.2 80.54 H 89.23 V 95.3 H 207.17 C 276.4 95.3, 276.4 257.72, 345.63 257.72 H 463.57 C 532.8 257.72, 532.8 215.64, 602.03 215.64 H 719.97 C 789.2 215.64, 789.2 177.99, 858.43 177.99 H 976.37 C 1045.6 177.99, 1045.6 177.99, 1114.83 177.99 H 1232.77 V 163.22 H 1114.83 C 1045.6 163.22, 1045.6 163.22, 976.37 163.22 H 858.43 C 789.2 163.22, 789.2 200.88, 719.97 200.88 H 602.03 C 532.8 200.88, 532.8 242.96, 463.57 242.96 H 345.63 C 276.4 242.96, 276.4 80.54, 207.17 80.54 H 148.2 " shape-rendering="geometricPrecision" style="fill: rgb(244, 117, 34);"></path><path class="stream" clip-path="url(#clip6_1wrapper)" id="stream6_1wrapper" paint-order="stroke" d="M 661 556.72 H 602.03 C 575.1 556.72, 575.1 599.54, 602.03 599.54 H 719.97 C 789.2 599.54, 789.2 561.89, 858.43 561.89 H 976.37 C 1045.6 561.89, 1045.6 656.39, 1114.83 656.39 H 1232.77 V 613.57 H 1114.83 C 1045.6 613.57, 1045.6 519.07, 976.37 519.07 H 858.43 C 789.2 519.07, 789.2 556.72, 719.97 556.72 H 661 " shape-rendering="geometricPrecision" style="fill: rgb(244, 117, 34);"></path></g></g><g class="depthLayer depth-6" filter="url(#FILTER_24)"><g class="clipLayer"><path class="stream" clip-path="url(#clip4wrapper)" id="stream4wrapper" paint-order="stroke" d="M 148.2 719.88 H 89.23 V 734.64 H 207.17 C 276.4 734.64, 276.4 553.03, 345.63 553.03 H 463.57 C 532.8 553.03, 532.8 510.95, 602.03 510.95 H 719.97 C 789.2 510.95, 789.2 473.3, 858.43 473.3 H 976.37 C 1045.6 473.3, 1045.6 473.3, 1114.83 473.3 H 1232.77 V 458.53 H 1114.83 C 1045.6 458.53, 1045.6 458.53, 976.37 458.53 H 858.43 C 789.2 458.53, 789.2 496.18, 719.97 496.18 H 602.03 C 532.8 496.18, 532.8 538.26, 463.57 538.26 H 345.63 C 276.4 538.26, 276.4 719.88, 207.17 719.88 H 148.2 " shape-rendering="geometricPrecision" style="fill: rgb(251, 141, 61);"></path><path class="stream" clip-path="url(#clip8wrapper)" id="stream8wrapper" paint-order="stroke" d="M 148.2 674.1 H 89.23 V 688.87 H 207.17 C 276.4 688.87, 276.4 507.26, 345.63 507.26 H 463.57 C 532.8 507.26, 532.8 465.18, 602.03 465.18 H 719.97 C 789.2 465.18, 789.2 427.52, 858.43 427.52 H 976.37 C 1045.6 427.52, 1045.6 427.52, 1114.83 427.52 H 1232.77 V 412.76 H 1114.83 C 1045.6 412.76, 1045.6 412.76, 976.37 412.76 H 858.43 C 789.2 412.76, 789.2 450.41, 719.97 450.41 H 602.03 C 532.8 450.41, 532.8 492.49, 463.57 492.49 H 345.63 C 276.4 492.49, 276.4 674.1, 207.17 674.1 H 148.2 " shape-rendering="geometricPrecision" style="fill: rgb(251, 141, 61);"></path><path class="stream" clip-path="url(#clip9wrapper)" id="stream9wrapper" paint-order="stroke" d="M 148.2 654.91 H 89.23 V 669.68 H 207.17 C 276.4 669.68, 276.4 488.06, 345.63 488.06 H 463.57 C 532.8 488.06, 532.8 445.98, 602.03 445.98 H 719.97 C 789.2 445.98, 789.2 408.33, 858.43 408.33 H 976.37 C 1045.6 408.33, 1045.6 408.33, 1114.83 408.33 H 1232.77 V 393.56 H 1114.83 C 1045.6 393.56, 1045.6 393.56, 976.37 393.56 H 858.43 C 789.2 393.56, 789.2 431.21, 719.97 431.21 H 602.03 C 532.8 431.21, 532.8 473.3, 463.57 473.3 H 345.63 C 276.4 473.3, 276.4 654.91, 207.17 654.91 H 148.2 " shape-rendering="geometricPrecision" style="fill: rgb(251, 141, 61);"></path><path class="stream" clip-path="url(#clip14wrapper)" id="stream14wrapper" paint-order="stroke" d="M 148.2 589.94 H 89.23 V 604.71 H 207.17 C 276.4 604.71, 276.4 423.09, 345.63 423.09 H 463.57 C 532.8 423.09, 532.8 381.01, 602.03 381.01 H 719.97 C 789.2 381.01, 789.2 343.36, 858.43 343.36 H 976.37 C 1045.6 343.36, 1045.6 343.36, 1114.83 343.36 H 1232.77 V 328.6 H 1114.83 C 1045.6 328.6, 1045.6 328.6, 976.37 328.6 H 858.43 C 789.2 328.6, 789.2 366.25, 719.97 366.25 H 602.03 C 532.8 366.25, 532.8 408.33, 463.57 408.33 H 345.63 C 276.4 408.33, 276.4 589.94, 207.17 589.94 H 148.2 " shape-rendering="geometricPrecision" style="fill: rgb(251, 141, 61);"></path><path class="stream" clip-path="url(#clip15wrapper)" id="stream15wrapper" paint-order="stroke" d="M 148.2 570.75 H 89.23 V 585.51 H 207.17 C 276.4 585.51, 276.4 403.9, 345.63 403.9 H 463.57 C 532.8 403.9, 532.8 361.82, 602.03 361.82 H 719.97 C 789.2 361.82, 789.2 324.17, 858.43 324.17 H 976.37 C 1045.6 324.17, 1045.6 324.17, 1114.83 324.17 H 1232.77 V 309.4 H 1114.83 C 1045.6 309.4, 1045.6 309.4, 976.37 309.4 H 858.43 C 789.2 309.4, 789.2 347.05, 719.97 347.05 H 602.03 C 532.8 347.05, 532.8 389.13, 463.57 389.13 H 345.63 C 276.4 389.13, 276.4 570.75, 207.17 570.75 H 148.2 " shape-rendering="geometricPrecision" style="fill: rgb(251, 141, 61);"></path><path class="stream" clip-path="url(#clip22wrapper)" id="stream22wrapper" paint-order="stroke" d="M 148.2 467.39 H 89.23 V 482.16 H 207.17 C 222.98 482.16, 222.98 467.39, 207.17 467.39 H 148.2 " shape-rendering="geometricPrecision" style="fill: rgb(251, 141, 61);"></path><path class="stream" clip-path="url(#clip23wrapper)" id="stream23wrapper" paint-order="stroke" d="M 148.2 448.19 H 89.23 V 462.96 H 207.17 C 222.98 462.96, 222.98 448.19, 207.17 448.19 H 148.2 " shape-rendering="geometricPrecision" style="fill: rgb(251, 141, 61);"></path><path class="stream" clip-path="url(#clip44wrapper)" id="stream44wrapper" paint-order="stroke" d="M 148.2 169.13 H 89.23 V 434.91 H 207.17 C 274.25 434.91, 274.25 169.13, 207.17 169.13 H 148.2 " shape-rendering="geometricPrecision" style="fill: rgb(251, 141, 61);"></path><path class="stream" clip-path="url(#clip48wrapper)" id="stream48wrapper" paint-order="stroke" d="M 148.2 123.36 H 89.23 V 138.12 H 207.17 C 276.4 138.12, 276.4 300.54, 345.63 300.54 H 463.57 C 532.8 300.54, 532.8 258.46, 602.03 258.46 H 719.97 C 789.2 258.46, 789.2 220.81, 858.43 220.81 H 976.37 C 1045.6 220.81, 1045.6 220.81, 1114.83 220.81 H 1232.77 V 206.04 H 1114.83 C 1045.6 206.04, 1045.6 206.04, 976.37 206.04 H 858.43 C 789.2 206.04, 789.2 243.69, 719.97 243.69 H 602.03 C 532.8 243.69, 532.8 285.78, 463.57 285.78 H 345.63 C 276.4 285.78, 276.4 123.36, 207.17 123.36 H 148.2 " shape-rendering="geometricPrecision" style="fill: rgb(251, 141, 61);"></path><path class="stream" clip-path="url(#clip49wrapper)" id="stream49wrapper" paint-order="stroke" d="M 148.2 104.16 H 89.23 V 118.93 H 207.17 C 276.4 118.93, 276.4 281.35, 345.63 281.35 H 463.57 C 532.8 281.35, 532.8 239.27, 602.03 239.27 H 719.97 C 789.2 239.27, 789.2 201.61, 858.43 201.61 H 976.37 C 1045.6 201.61, 1045.6 201.61, 1114.83 201.61 H 1232.77 V 186.85 H 1114.83 C 1045.6 186.85, 1045.6 186.85, 976.37 186.85 H 858.43 C 789.2 186.85, 789.2 224.5, 719.97 224.5 H 602.03 C 532.8 224.5, 532.8 266.58, 463.57 266.58 H 345.63 C 276.4 266.58, 276.4 104.16, 207.17 104.16 H 148.2 " shape-rendering="geometricPrecision" style="fill: rgb(251, 141, 61);"></path><path class="stream" clip-path="url(#clip4_1wrapper)" id="stream4_1wrapper" paint-order="stroke" d="M 661 580.34 H 602.03 C 586.22 580.34, 586.22 595.11, 602.03 595.11 H 719.97 C 789.2 595.11, 789.2 557.46, 858.43 557.46 H 976.37 C 1045.6 557.46, 1045.6 651.96, 1114.83 651.96 H 1232.77 V 637.19 H 1114.83 C 1045.6 637.19, 1045.6 542.69, 976.37 542.69 H 858.43 C 789.2 542.69, 789.2 580.34, 719.97 580.34 H 661 " shape-rendering="geometricPrecision" style="fill: rgb(251, 141, 61);"></path><path class="stream" clip-path="url(#clip5_1wrapper)" id="stream5_1wrapper" paint-order="stroke" d="M 661 561.15 H 602.03 C 586.22 561.15, 586.22 575.92, 602.03 575.92 H 719.97 C 789.2 575.92, 789.2 538.26, 858.43 538.26 H 976.37 C 1045.6 538.26, 1045.6 632.76, 1114.83 632.76 H 1232.77 V 618 H 1114.83 C 1045.6 618, 1045.6 523.5, 976.37 523.5 H 858.43 C 789.2 523.5, 789.2 561.15, 719.97 561.15 H 661 " shape-rendering="geometricPrecision" style="fill: rgb(251, 141, 61);"></path></g></g><g class="depthLayer depth-7" filter="url(#FILTER_24)"><g class="clipLayer"><path class="stream" clip-path="url(#clip43wrapper)" id="stream43wrapper" paint-order="stroke" d="M 148.2 173.56 H 89.23 V 430.48 H 207.17 C 273.13 430.48, 273.13 173.56, 207.17 173.56 H 148.2 " shape-rendering="geometricPrecision" style="fill: rgb(253, 163, 92);"></path></g></g><g class="depthLayer depth-8" filter="url(#FILTER_24)"><g class="clipLayer"><path class="stream" clip-path="url(#clip35wrapper)" id="stream35wrapper" paint-order="stroke" d="M 148.2 271.01 H 89.23 V 426.05 H 207.17 C 258.41 426.05, 258.41 271.01, 207.17 271.01 H 148.2 " shape-rendering="geometricPrecision" style="fill: rgb(253, 185, 126);"></path><path class="stream" clip-path="url(#clip42wrapper)" id="stream42wrapper" paint-order="stroke" d="M 148.2 177.99 H 89.23 V 266.58 H 207.17 C 245.9 266.58, 245.9 177.99, 207.17 177.99 H 148.2 " shape-rendering="geometricPrecision" style="fill: rgb(253, 185, 126);"></path></g></g><g class="depthLayer depth-9" filter="url(#FILTER_24)"><g class="clipLayer"><path class="stream" clip-path="url(#clip29wrapper)" id="stream29wrapper" paint-order="stroke" d="M 148.2 350.74 H 89.23 V 421.62 H 207.17 C 241.81 421.62, 241.81 350.74, 207.17 350.74 H 148.2 " shape-rendering="geometricPrecision" style="fill: rgb(253, 206, 160);"></path><path class="stream" clip-path="url(#clip34wrapper)" id="stream34wrapper" paint-order="stroke" d="M 148.2 275.44 H 89.23 V 346.31 H 207.17 C 241.81 346.31, 241.81 275.44, 207.17 275.44 H 148.2 " shape-rendering="geometricPrecision" style="fill: rgb(253, 206, 160);"></path><path class="stream" clip-path="url(#clip41wrapper)" id="stream41wrapper" paint-order="stroke" d="M 148.2 182.42 H 89.23 V 262.15 H 207.17 C 243.91 262.15, 243.91 182.42, 207.17 182.42 H 148.2 " shape-rendering="geometricPrecision" style="fill: rgb(253, 206, 160);"></path></g></g><g class="depthLayer depth-10" filter="url(#FILTER_24)"><g class="clipLayer"><path class="stream" clip-path="url(#clip27wrapper)" id="stream27wrapper" paint-order="stroke" d="M 148.2 374.37 H 89.23 V 417.19 H 207.17 C 234.1 417.19, 234.1 374.37, 207.17 374.37 H 148.2 " shape-rendering="geometricPrecision" style="fill: rgb(254, 222, 191);"></path><path class="stream" clip-path="url(#clip28wrapper)" id="stream28wrapper" paint-order="stroke" d="M 148.2 355.17 H 89.23 V 369.94 H 207.17 C 222.98 369.94, 222.98 355.17, 207.17 355.17 H 148.2 " shape-rendering="geometricPrecision" style="fill: rgb(254, 222, 191);"></path><path class="stream" clip-path="url(#clip32wrapper)" id="stream32wrapper" paint-order="stroke" d="M 148.2 299.06 H 89.23 V 341.88 H 207.17 C 234.1 341.88, 234.1 299.06, 207.17 299.06 H 148.2 " shape-rendering="geometricPrecision" style="fill: rgb(254, 222, 191);"></path><path class="stream" clip-path="url(#clip33wrapper)" id="stream33wrapper" paint-order="stroke" d="M 148.2 279.87 H 89.23 V 294.64 H 207.17 C 222.98 294.64, 222.98 279.87, 207.17 279.87 H 148.2 " shape-rendering="geometricPrecision" style="fill: rgb(254, 222, 191);"></path><path class="stream" clip-path="url(#clip40wrapper)" id="stream40wrapper" paint-order="stroke" d="M 148.2 186.85 H 89.23 V 257.72 H 207.17 C 241.81 257.72, 241.81 186.85, 207.17 186.85 H 148.2 " shape-rendering="geometricPrecision" style="fill: rgb(254, 222, 191);"></path></g></g><g class="depthLayer depth-11" filter="url(#FILTER_24)"><g class="clipLayer"><path class="stream" clip-path="url(#clip25wrapper)" id="stream25wrapper" paint-order="stroke" d="M 148.2 397.99 H 89.23 V 412.76 H 207.17 C 222.98 412.76, 222.98 397.99, 207.17 397.99 H 148.2 " shape-rendering="geometricPrecision" style="fill: rgb(254, 235, 215);"></path><path class="stream" clip-path="url(#clip26wrapper)" id="stream26wrapper" paint-order="stroke" d="M 148.2 378.8 H 89.23 V 393.56 H 207.17 C 222.98 393.56, 222.98 378.8, 207.17 378.8 H 148.2 " shape-rendering="geometricPrecision" style="fill: rgb(254, 235, 215);"></path><path class="stream" clip-path="url(#clip30wrapper)" id="stream30wrapper" paint-order="stroke" d="M 148.2 322.69 H 89.23 V 337.45 H 207.17 C 222.98 337.45, 222.98 322.69, 207.17 322.69 H 148.2 " shape-rendering="geometricPrecision" style="fill: rgb(254, 235, 215);"></path><path class="stream" clip-path="url(#clip31wrapper)" id="stream31wrapper" paint-order="stroke" d="M 148.2 303.49 H 89.23 V 318.26 H 207.17 C 222.98 318.26, 222.98 303.49, 207.17 303.49 H 148.2 " shape-rendering="geometricPrecision" style="fill: rgb(254, 235, 215);"></path><path class="stream" clip-path="url(#clip36wrapper)" id="stream36wrapper" paint-order="stroke" d="M 148.2 238.53 H 89.23 V 253.29 H 207.17 C 222.98 253.29, 222.98 238.53, 207.17 238.53 H 148.2 " shape-rendering="geometricPrecision" style="fill: rgb(254, 235, 215);"></path><path class="stream" clip-path="url(#clip39wrapper)" id="stream39wrapper" paint-order="stroke" d="M 148.2 191.28 H 89.23 V 234.1 H 207.17 C 234.1 234.1, 234.1 191.28, 207.17 191.28 H 148.2 " shape-rendering="geometricPrecision" style="fill: rgb(254, 235, 215);"></path></g></g><g class="depthLayer depth-12" filter="url(#FILTER_24)"><g class="clipLayer"><path class="stream" clip-path="url(#clip37wrapper)" id="stream37wrapper" paint-order="stroke" d="M 148.2 214.9 H 89.23 V 229.67 H 207.17 C 222.98 229.67, 222.98 214.9, 207.17 214.9 H 148.2 " shape-rendering="geometricPrecision" style="fill: rgb(255, 245, 235);"></path><path class="stream" clip-path="url(#clip38wrapper)" id="stream38wrapper" paint-order="stroke" d="M 148.2 195.71 H 89.23 V 210.47 H 207.17 C 222.98 210.47, 222.98 195.71, 207.17 195.71 H 148.2 " shape-rendering="geometricPrecision" style="fill: rgb(255, 245, 235);"></path></g></g></g><g class="textContainer"></g><defs class="svg-custom-filters"><filter id="FILTER_0" height="300%" width="300%" x="-100%" y="-100%">
            <feComponentTransfer in="SourceAlpha" result="invert1">
                <feFuncA type="table" tableValues="1 0"></feFuncA>
            </feComponentTransfer>
            <feGaussianBlur in="invert1" stdDeviation="0" result="blur1"></feGaussianBlur>
            <feOffset in="blur1" dx="0" dy="0" result="offsetblur11"></feOffset>
            <feOffset in="blur1" dy="0" result="offsetblur21"></feOffset>
            <feFlood flood-color="black"></feFlood> 
            <feComposite in2="offsetblur11" operator="in" result="offsetblur1cut1"></feComposite>
            <feFlood flood-color="black"></feFlood> 
            <feComposite in2="offsetblur21" operator="in" result="offsetblur2cut1"></feComposite>
            <feMerge>
                <feMergeNode in="SourceGraphic"></feMergeNode>
                <feMergeNode in="offsetblur11"></feMergeNode>
                <feMergeNode in="offsetblur21"></feMergeNode>
            </feMerge>
            <feComposite in2="SourceAlpha" operator="in"></feComposite>
        
            <feDropShadow id="ds_black_0_0_0" dx="0" dy="0" stdDeviation="0" flood-color="black"></feDropShadow>
        </filter><filter id="FILTER_1" height="300%" width="300%" x="-100%" y="-100%">
            <feComponentTransfer in="SourceAlpha" result="invert3">
                <feFuncA type="table" tableValues="1 0"></feFuncA>
            </feComponentTransfer>
            <feGaussianBlur in="invert3" stdDeviation="0" result="blur3"></feGaussianBlur>
            <feOffset in="blur3" dx="0" dy="0" result="offsetblur13"></feOffset>
            <feOffset in="blur3" dy="0" result="offsetblur23"></feOffset>
            <feFlood flood-color="black"></feFlood> 
            <feComposite in2="offsetblur13" operator="in" result="offsetblur1cut3"></feComposite>
            <feFlood flood-color="black"></feFlood> 
            <feComposite in2="offsetblur23" operator="in" result="offsetblur2cut3"></feComposite>
            <feMerge>
                <feMergeNode in="SourceGraphic"></feMergeNode>
                <feMergeNode in="offsetblur13"></feMergeNode>
                <feMergeNode in="offsetblur23"></feMergeNode>
            </feMerge>
            <feComposite in2="SourceAlpha" operator="in"></feComposite>
        
            <feDropShadow id="ds_black_1_6_0_0" dx="0" dy="0" stdDeviation="1.6" flood-color="black"></feDropShadow>
        </filter><filter id="FILTER_2" height="300%" width="300%" x="-100%" y="-100%">
            <feComponentTransfer in="SourceAlpha" result="invert5">
                <feFuncA type="table" tableValues="1 0"></feFuncA>
            </feComponentTransfer>
            <feGaussianBlur in="invert5" stdDeviation="1.8" result="blur5"></feGaussianBlur>
            <feOffset in="blur5" dx="0" dy="0" result="offsetblur15"></feOffset>
            <feOffset in="blur5" dy="0" result="offsetblur25"></feOffset>
            <feFlood flood-color="black"></feFlood> 
            <feComposite in2="offsetblur15" operator="in" result="offsetblur1cut5"></feComposite>
            <feFlood flood-color="black"></feFlood> 
            <feComposite in2="offsetblur25" operator="in" result="offsetblur2cut5"></feComposite>
            <feMerge>
                <feMergeNode in="SourceGraphic"></feMergeNode>
                <feMergeNode in="offsetblur15"></feMergeNode>
                <feMergeNode in="offsetblur25"></feMergeNode>
            </feMerge>
            <feComposite in2="SourceAlpha" operator="in"></feComposite>
        
            <feDropShadow id="ds_black_1_6_0_0" dx="0" dy="0" stdDeviation="1.6" flood-color="black"></feDropShadow>
        </filter><filter id="FILTER_3" height="300%" width="300%" x="-100%" y="-100%">
            <feComponentTransfer in="SourceAlpha" result="invert7">
                <feFuncA type="table" tableValues="1 0"></feFuncA>
            </feComponentTransfer>
            <feGaussianBlur in="invert7" stdDeviation="6.8" result="blur7"></feGaussianBlur>
            <feOffset in="blur7" dx="0" dy="0" result="offsetblur17"></feOffset>
            <feOffset in="blur7" dy="0" result="offsetblur27"></feOffset>
            <feFlood flood-color="black"></feFlood> 
            <feComposite in2="offsetblur17" operator="in" result="offsetblur1cut7"></feComposite>
            <feFlood flood-color="black"></feFlood> 
            <feComposite in2="offsetblur27" operator="in" result="offsetblur2cut7"></feComposite>
            <feMerge>
                <feMergeNode in="SourceGraphic"></feMergeNode>
                <feMergeNode in="offsetblur17"></feMergeNode>
                <feMergeNode in="offsetblur27"></feMergeNode>
            </feMerge>
            <feComposite in2="SourceAlpha" operator="in"></feComposite>
        
            <feDropShadow id="ds_black_1_6_0_0" dx="0" dy="0" stdDeviation="1.6" flood-color="black"></feDropShadow>
        </filter><filter id="FILTER_4" height="300%" width="300%" x="-100%" y="-100%">
            <feComponentTransfer in="SourceAlpha" result="invert9">
                <feFuncA type="table" tableValues="1 0"></feFuncA>
            </feComponentTransfer>
            <feGaussianBlur in="invert9" stdDeviation="3.8" result="blur9"></feGaussianBlur>
            <feOffset in="blur9" dx="0" dy="0" result="offsetblur19"></feOffset>
            <feOffset in="blur9" dy="0" result="offsetblur29"></feOffset>
            <feFlood flood-color="black"></feFlood> 
            <feComposite in2="offsetblur19" operator="in" result="offsetblur1cut9"></feComposite>
            <feFlood flood-color="black"></feFlood> 
            <feComposite in2="offsetblur29" operator="in" result="offsetblur2cut9"></feComposite>
            <feMerge>
                <feMergeNode in="SourceGraphic"></feMergeNode>
                <feMergeNode in="offsetblur19"></feMergeNode>
                <feMergeNode in="offsetblur29"></feMergeNode>
            </feMerge>
            <feComposite in2="SourceAlpha" operator="in"></feComposite>
        
            <feDropShadow id="ds_black_1_6_0_0" dx="0" dy="0" stdDeviation="1.6" flood-color="black"></feDropShadow>
        </filter><filter id="FILTER_5" height="300%" width="300%" x="-100%" y="-100%">
            <feComponentTransfer in="SourceAlpha" result="invert11">
                <feFuncA type="table" tableValues="1 0"></feFuncA>
            </feComponentTransfer>
            <feGaussianBlur in="invert11" stdDeviation="0.2" result="blur11"></feGaussianBlur>
            <feOffset in="blur11" dx="0" dy="0" result="offsetblur111"></feOffset>
            <feOffset in="blur11" dy="0" result="offsetblur211"></feOffset>
            <feFlood flood-color="black"></feFlood> 
            <feComposite in2="offsetblur111" operator="in" result="offsetblur1cut11"></feComposite>
            <feFlood flood-color="black"></feFlood> 
            <feComposite in2="offsetblur211" operator="in" result="offsetblur2cut11"></feComposite>
            <feMerge>
                <feMergeNode in="SourceGraphic"></feMergeNode>
                <feMergeNode in="offsetblur111"></feMergeNode>
                <feMergeNode in="offsetblur211"></feMergeNode>
            </feMerge>
            <feComposite in2="SourceAlpha" operator="in"></feComposite>
        
            <feDropShadow id="ds_black_1_6_0_0" dx="0" dy="0" stdDeviation="1.6" flood-color="black"></feDropShadow>
        </filter><filter id="FILTER_6" height="300%" width="300%" x="-100%" y="-100%">
            <feComponentTransfer in="SourceAlpha" result="invert13">
                <feFuncA type="table" tableValues="1 0"></feFuncA>
            </feComponentTransfer>
            <feGaussianBlur in="invert13" stdDeviation="0.4" result="blur13"></feGaussianBlur>
            <feOffset in="blur13" dx="0" dy="0" result="offsetblur113"></feOffset>
            <feOffset in="blur13" dy="0" result="offsetblur213"></feOffset>
            <feFlood flood-color="black"></feFlood> 
            <feComposite in2="offsetblur113" operator="in" result="offsetblur1cut13"></feComposite>
            <feFlood flood-color="black"></feFlood> 
            <feComposite in2="offsetblur213" operator="in" result="offsetblur2cut13"></feComposite>
            <feMerge>
                <feMergeNode in="SourceGraphic"></feMergeNode>
                <feMergeNode in="offsetblur113"></feMergeNode>
                <feMergeNode in="offsetblur213"></feMergeNode>
            </feMerge>
            <feComposite in2="SourceAlpha" operator="in"></feComposite>
        
            <feDropShadow id="ds_black_1_6_0_0" dx="0" dy="0" stdDeviation="1.6" flood-color="black"></feDropShadow>
        </filter><filter id="FILTER_7" height="300%" width="300%" x="-100%" y="-100%">
            <feComponentTransfer in="SourceAlpha" result="invert15">
                <feFuncA type="table" tableValues="1 0"></feFuncA>
            </feComponentTransfer>
            <feGaussianBlur in="invert15" stdDeviation="0.6" result="blur15"></feGaussianBlur>
            <feOffset in="blur15" dx="0" dy="0" result="offsetblur115"></feOffset>
            <feOffset in="blur15" dy="0" result="offsetblur215"></feOffset>
            <feFlood flood-color="black"></feFlood> 
            <feComposite in2="offsetblur115" operator="in" result="offsetblur1cut15"></feComposite>
            <feFlood flood-color="black"></feFlood> 
            <feComposite in2="offsetblur215" operator="in" result="offsetblur2cut15"></feComposite>
            <feMerge>
                <feMergeNode in="SourceGraphic"></feMergeNode>
                <feMergeNode in="offsetblur115"></feMergeNode>
                <feMergeNode in="offsetblur215"></feMergeNode>
            </feMerge>
            <feComposite in2="SourceAlpha" operator="in"></feComposite>
        
            <feDropShadow id="ds_black_1_6_0_0" dx="0" dy="0" stdDeviation="1.6" flood-color="black"></feDropShadow>
        </filter><filter id="FILTER_8" height="300%" width="300%" x="-100%" y="-100%">
            <feComponentTransfer in="SourceAlpha" result="invert17">
                <feFuncA type="table" tableValues="1 0"></feFuncA>
            </feComponentTransfer>
            <feGaussianBlur in="invert17" stdDeviation="0.8" result="blur17"></feGaussianBlur>
            <feOffset in="blur17" dx="0" dy="0" result="offsetblur117"></feOffset>
            <feOffset in="blur17" dy="0" result="offsetblur217"></feOffset>
            <feFlood flood-color="black"></feFlood> 
            <feComposite in2="offsetblur117" operator="in" result="offsetblur1cut17"></feComposite>
            <feFlood flood-color="black"></feFlood> 
            <feComposite in2="offsetblur217" operator="in" result="offsetblur2cut17"></feComposite>
            <feMerge>
                <feMergeNode in="SourceGraphic"></feMergeNode>
                <feMergeNode in="offsetblur117"></feMergeNode>
                <feMergeNode in="offsetblur217"></feMergeNode>
            </feMerge>
            <feComposite in2="SourceAlpha" operator="in"></feComposite>
        
            <feDropShadow id="ds_black_1_6_0_0" dx="0" dy="0" stdDeviation="1.6" flood-color="black"></feDropShadow>
        </filter><filter id="FILTER_9" height="300%" width="300%" x="-100%" y="-100%">
            <feComponentTransfer in="SourceAlpha" result="invert19">
                <feFuncA type="table" tableValues="1 0"></feFuncA>
            </feComponentTransfer>
            <feGaussianBlur in="invert19" stdDeviation="1" result="blur19"></feGaussianBlur>
            <feOffset in="blur19" dx="0" dy="0" result="offsetblur119"></feOffset>
            <feOffset in="blur19" dy="0" result="offsetblur219"></feOffset>
            <feFlood flood-color="black"></feFlood> 
            <feComposite in2="offsetblur119" operator="in" result="offsetblur1cut19"></feComposite>
            <feFlood flood-color="black"></feFlood> 
            <feComposite in2="offsetblur219" operator="in" result="offsetblur2cut19"></feComposite>
            <feMerge>
                <feMergeNode in="SourceGraphic"></feMergeNode>
                <feMergeNode in="offsetblur119"></feMergeNode>
                <feMergeNode in="offsetblur219"></feMergeNode>
            </feMerge>
            <feComposite in2="SourceAlpha" operator="in"></feComposite>
        
            <feDropShadow id="ds_black_1_6_0_0" dx="0" dy="0" stdDeviation="1.6" flood-color="black"></feDropShadow>
        </filter><filter id="FILTER_10" height="300%" width="300%" x="-100%" y="-100%">
            <feComponentTransfer in="SourceAlpha" result="invert21">
                <feFuncA type="table" tableValues="1 0"></feFuncA>
            </feComponentTransfer>
            <feGaussianBlur in="invert21" stdDeviation="1.2" result="blur21"></feGaussianBlur>
            <feOffset in="blur21" dx="0" dy="0" result="offsetblur121"></feOffset>
            <feOffset in="blur21" dy="0" result="offsetblur221"></feOffset>
            <feFlood flood-color="black"></feFlood> 
            <feComposite in2="offsetblur121" operator="in" result="offsetblur1cut21"></feComposite>
            <feFlood flood-color="black"></feFlood> 
            <feComposite in2="offsetblur221" operator="in" result="offsetblur2cut21"></feComposite>
            <feMerge>
                <feMergeNode in="SourceGraphic"></feMergeNode>
                <feMergeNode in="offsetblur121"></feMergeNode>
                <feMergeNode in="offsetblur221"></feMergeNode>
            </feMerge>
            <feComposite in2="SourceAlpha" operator="in"></feComposite>
        
            <feDropShadow id="ds_black_1_6_0_0" dx="0" dy="0" stdDeviation="1.6" flood-color="black"></feDropShadow>
        </filter><filter id="FILTER_11" height="300%" width="300%" x="-100%" y="-100%">
            <feComponentTransfer in="SourceAlpha" result="invert23">
                <feFuncA type="table" tableValues="1 0"></feFuncA>
            </feComponentTransfer>
            <feGaussianBlur in="invert23" stdDeviation="1.4" result="blur23"></feGaussianBlur>
            <feOffset in="blur23" dx="0" dy="0" result="offsetblur123"></feOffset>
            <feOffset in="blur23" dy="0" result="offsetblur223"></feOffset>
            <feFlood flood-color="black"></feFlood> 
            <feComposite in2="offsetblur123" operator="in" result="offsetblur1cut23"></feComposite>
            <feFlood flood-color="black"></feFlood> 
            <feComposite in2="offsetblur223" operator="in" result="offsetblur2cut23"></feComposite>
            <feMerge>
                <feMergeNode in="SourceGraphic"></feMergeNode>
                <feMergeNode in="offsetblur123"></feMergeNode>
                <feMergeNode in="offsetblur223"></feMergeNode>
            </feMerge>
            <feComposite in2="SourceAlpha" operator="in"></feComposite>
        
            <feDropShadow id="ds_black_1_6_0_0" dx="0" dy="0" stdDeviation="1.6" flood-color="black"></feDropShadow>
        </filter><filter id="FILTER_12" height="300%" width="300%" x="-100%" y="-100%">
            <feComponentTransfer in="SourceAlpha" result="invert25">
                <feFuncA type="table" tableValues="1 0"></feFuncA>
            </feComponentTransfer>
            <feGaussianBlur in="invert25" stdDeviation="1.6" result="blur25"></feGaussianBlur>
            <feOffset in="blur25" dx="0" dy="0" result="offsetblur125"></feOffset>
            <feOffset in="blur25" dy="0" result="offsetblur225"></feOffset>
            <feFlood flood-color="black"></feFlood> 
            <feComposite in2="offsetblur125" operator="in" result="offsetblur1cut25"></feComposite>
            <feFlood flood-color="black"></feFlood> 
            <feComposite in2="offsetblur225" operator="in" result="offsetblur2cut25"></feComposite>
            <feMerge>
                <feMergeNode in="SourceGraphic"></feMergeNode>
                <feMergeNode in="offsetblur125"></feMergeNode>
                <feMergeNode in="offsetblur225"></feMergeNode>
            </feMerge>
            <feComposite in2="SourceAlpha" operator="in"></feComposite>
        
            <feDropShadow id="ds_black_1_6_0_0" dx="0" dy="0" stdDeviation="1.6" flood-color="black"></feDropShadow>
        </filter><filter id="FILTER_13" height="300%" width="300%" x="-100%" y="-100%">
            <feComponentTransfer in="SourceAlpha" result="invert27">
                <feFuncA type="table" tableValues="1 0"></feFuncA>
            </feComponentTransfer>
            <feGaussianBlur in="invert27" stdDeviation="2" result="blur27"></feGaussianBlur>
            <feOffset in="blur27" dx="0" dy="0" result="offsetblur127"></feOffset>
            <feOffset in="blur27" dy="0" result="offsetblur227"></feOffset>
            <feFlood flood-color="black"></feFlood> 
            <feComposite in2="offsetblur127" operator="in" result="offsetblur1cut27"></feComposite>
            <feFlood flood-color="black"></feFlood> 
            <feComposite in2="offsetblur227" operator="in" result="offsetblur2cut27"></feComposite>
            <feMerge>
                <feMergeNode in="SourceGraphic"></feMergeNode>
                <feMergeNode in="offsetblur127"></feMergeNode>
                <feMergeNode in="offsetblur227"></feMergeNode>
            </feMerge>
            <feComposite in2="SourceAlpha" operator="in"></feComposite>
        
            <feDropShadow id="ds_black_1_6_0_0" dx="0" dy="0" stdDeviation="1.6" flood-color="black"></feDropShadow>
        </filter><filter id="FILTER_14" height="300%" width="300%" x="-100%" y="-100%">
            <feComponentTransfer in="SourceAlpha" result="invert29">
                <feFuncA type="table" tableValues="1 0"></feFuncA>
            </feComponentTransfer>
            <feGaussianBlur in="invert29" stdDeviation="2.2" result="blur29"></feGaussianBlur>
            <feOffset in="blur29" dx="0" dy="0" result="offsetblur129"></feOffset>
            <feOffset in="blur29" dy="0" result="offsetblur229"></feOffset>
            <feFlood flood-color="black"></feFlood> 
            <feComposite in2="offsetblur129" operator="in" result="offsetblur1cut29"></feComposite>
            <feFlood flood-color="black"></feFlood> 
            <feComposite in2="offsetblur229" operator="in" result="offsetblur2cut29"></feComposite>
            <feMerge>
                <feMergeNode in="SourceGraphic"></feMergeNode>
                <feMergeNode in="offsetblur129"></feMergeNode>
                <feMergeNode in="offsetblur229"></feMergeNode>
            </feMerge>
            <feComposite in2="SourceAlpha" operator="in"></feComposite>
        
            <feDropShadow id="ds_black_1_6_0_0" dx="0" dy="0" stdDeviation="1.6" flood-color="black"></feDropShadow>
        </filter><filter id="FILTER_15" height="300%" width="300%" x="-100%" y="-100%">
            <feComponentTransfer in="SourceAlpha" result="invert31">
                <feFuncA type="table" tableValues="1 0"></feFuncA>
            </feComponentTransfer>
            <feGaussianBlur in="invert31" stdDeviation="2.4" result="blur31"></feGaussianBlur>
            <feOffset in="blur31" dx="0" dy="0" result="offsetblur131"></feOffset>
            <feOffset in="blur31" dy="0" result="offsetblur231"></feOffset>
            <feFlood flood-color="black"></feFlood> 
            <feComposite in2="offsetblur131" operator="in" result="offsetblur1cut31"></feComposite>
            <feFlood flood-color="black"></feFlood> 
            <feComposite in2="offsetblur231" operator="in" result="offsetblur2cut31"></feComposite>
            <feMerge>
                <feMergeNode in="SourceGraphic"></feMergeNode>
                <feMergeNode in="offsetblur131"></feMergeNode>
                <feMergeNode in="offsetblur231"></feMergeNode>
            </feMerge>
            <feComposite in2="SourceAlpha" operator="in"></feComposite>
        
            <feDropShadow id="ds_black_1_6_0_0" dx="0" dy="0" stdDeviation="1.6" flood-color="black"></feDropShadow>
        </filter><filter id="FILTER_16" height="300%" width="300%" x="-100%" y="-100%">
            <feComponentTransfer in="SourceAlpha" result="invert33">
                <feFuncA type="table" tableValues="1 0"></feFuncA>
            </feComponentTransfer>
            <feGaussianBlur in="invert33" stdDeviation="2.6" result="blur33"></feGaussianBlur>
            <feOffset in="blur33" dx="0" dy="0" result="offsetblur133"></feOffset>
            <feOffset in="blur33" dy="0" result="offsetblur233"></feOffset>
            <feFlood flood-color="black"></feFlood> 
            <feComposite in2="offsetblur133" operator="in" result="offsetblur1cut33"></feComposite>
            <feFlood flood-color="black"></feFlood> 
            <feComposite in2="offsetblur233" operator="in" result="offsetblur2cut33"></feComposite>
            <feMerge>
                <feMergeNode in="SourceGraphic"></feMergeNode>
                <feMergeNode in="offsetblur133"></feMergeNode>
                <feMergeNode in="offsetblur233"></feMergeNode>
            </feMerge>
            <feComposite in2="SourceAlpha" operator="in"></feComposite>
        
            <feDropShadow id="ds_black_1_6_0_0" dx="0" dy="0" stdDeviation="1.6" flood-color="black"></feDropShadow>
        </filter><filter id="FILTER_17" height="300%" width="300%" x="-100%" y="-100%">
            <feComponentTransfer in="SourceAlpha" result="invert35">
                <feFuncA type="table" tableValues="1 0"></feFuncA>
            </feComponentTransfer>
            <feGaussianBlur in="invert35" stdDeviation="2.8" result="blur35"></feGaussianBlur>
            <feOffset in="blur35" dx="0" dy="0" result="offsetblur135"></feOffset>
            <feOffset in="blur35" dy="0" result="offsetblur235"></feOffset>
            <feFlood flood-color="black"></feFlood> 
            <feComposite in2="offsetblur135" operator="in" result="offsetblur1cut35"></feComposite>
            <feFlood flood-color="black"></feFlood> 
            <feComposite in2="offsetblur235" operator="in" result="offsetblur2cut35"></feComposite>
            <feMerge>
                <feMergeNode in="SourceGraphic"></feMergeNode>
                <feMergeNode in="offsetblur135"></feMergeNode>
                <feMergeNode in="offsetblur235"></feMergeNode>
            </feMerge>
            <feComposite in2="SourceAlpha" operator="in"></feComposite>
        
            <feDropShadow id="ds_black_1_6_0_0" dx="0" dy="0" stdDeviation="1.6" flood-color="black"></feDropShadow>
        </filter><filter id="FILTER_18" height="300%" width="300%" x="-100%" y="-100%">
            <feComponentTransfer in="SourceAlpha" result="invert37">
                <feFuncA type="table" tableValues="1 0"></feFuncA>
            </feComponentTransfer>
            <feGaussianBlur in="invert37" stdDeviation="2.8" result="blur37"></feGaussianBlur>
            <feOffset in="blur37" dx="0" dy="0" result="offsetblur137"></feOffset>
            <feOffset in="blur37" dy="0" result="offsetblur237"></feOffset>
            <feFlood flood-color="black"></feFlood> 
            <feComposite in2="offsetblur137" operator="in" result="offsetblur1cut37"></feComposite>
            <feFlood flood-color="black"></feFlood> 
            <feComposite in2="offsetblur237" operator="in" result="offsetblur2cut37"></feComposite>
            <feMerge>
                <feMergeNode in="SourceGraphic"></feMergeNode>
                <feMergeNode in="offsetblur137"></feMergeNode>
                <feMergeNode in="offsetblur237"></feMergeNode>
            </feMerge>
            <feComposite in2="SourceAlpha" operator="in"></feComposite>
        
            <feDropShadow id="ds_black_2_8_0_0" dx="0" dy="0" stdDeviation="2.8" flood-color="black"></feDropShadow>
        </filter><filter id="FILTER_19" height="300%" width="300%" x="-100%" y="-100%">
            <feComponentTransfer in="SourceAlpha" result="invert39">
                <feFuncA type="table" tableValues="1 0"></feFuncA>
            </feComponentTransfer>
            <feGaussianBlur in="invert39" stdDeviation="2.8" result="blur39"></feGaussianBlur>
            <feOffset in="blur39" dx="0" dy="0" result="offsetblur139"></feOffset>
            <feOffset in="blur39" dy="0" result="offsetblur239"></feOffset>
            <feFlood flood-color="black"></feFlood> 
            <feComposite in2="offsetblur139" operator="in" result="offsetblur1cut39"></feComposite>
            <feFlood flood-color="black"></feFlood> 
            <feComposite in2="offsetblur239" operator="in" result="offsetblur2cut39"></feComposite>
            <feMerge>
                <feMergeNode in="SourceGraphic"></feMergeNode>
                <feMergeNode in="offsetblur139"></feMergeNode>
                <feMergeNode in="offsetblur239"></feMergeNode>
            </feMerge>
            <feComposite in2="SourceAlpha" operator="in"></feComposite>
        
            <feDropShadow id="ds_black_5_0_0" dx="0" dy="0" stdDeviation="5" flood-color="black"></feDropShadow>
        </filter><filter id="FILTER_20" height="300%" width="300%" x="-100%" y="-100%">
            <feComponentTransfer in="SourceAlpha" result="invert41">
                <feFuncA type="table" tableValues="1 0"></feFuncA>
            </feComponentTransfer>
            <feGaussianBlur in="invert41" stdDeviation="4.8" result="blur41"></feGaussianBlur>
            <feOffset in="blur41" dx="0" dy="0" result="offsetblur141"></feOffset>
            <feOffset in="blur41" dy="0" result="offsetblur241"></feOffset>
            <feFlood flood-color="black"></feFlood> 
            <feComposite in2="offsetblur141" operator="in" result="offsetblur1cut41"></feComposite>
            <feFlood flood-color="black"></feFlood> 
            <feComposite in2="offsetblur241" operator="in" result="offsetblur2cut41"></feComposite>
            <feMerge>
                <feMergeNode in="SourceGraphic"></feMergeNode>
                <feMergeNode in="offsetblur141"></feMergeNode>
                <feMergeNode in="offsetblur241"></feMergeNode>
            </feMerge>
            <feComposite in2="SourceAlpha" operator="in"></feComposite>
        
            <feDropShadow id="ds_black_5_0_0" dx="0" dy="0" stdDeviation="5" flood-color="black"></feDropShadow>
        </filter><filter id="FILTER_21" height="300%" width="300%" x="-100%" y="-100%">
            <feComponentTransfer in="SourceAlpha" result="invert43">
                <feFuncA type="table" tableValues="1 0"></feFuncA>
            </feComponentTransfer>
            <feGaussianBlur in="invert43" stdDeviation="3" result="blur43"></feGaussianBlur>
            <feOffset in="blur43" dx="0" dy="0" result="offsetblur143"></feOffset>
            <feOffset in="blur43" dy="0" result="offsetblur243"></feOffset>
            <feFlood flood-color="black"></feFlood> 
            <feComposite in2="offsetblur143" operator="in" result="offsetblur1cut43"></feComposite>
            <feFlood flood-color="black"></feFlood> 
            <feComposite in2="offsetblur243" operator="in" result="offsetblur2cut43"></feComposite>
            <feMerge>
                <feMergeNode in="SourceGraphic"></feMergeNode>
                <feMergeNode in="offsetblur143"></feMergeNode>
                <feMergeNode in="offsetblur243"></feMergeNode>
            </feMerge>
            <feComposite in2="SourceAlpha" operator="in"></feComposite>
        
            <feDropShadow id="ds_black_5_0_0" dx="0" dy="0" stdDeviation="5" flood-color="black"></feDropShadow>
        </filter><filter id="FILTER_22" height="300%" width="300%" x="-100%" y="-100%">
            <feComponentTransfer in="SourceAlpha" result="invert45">
                <feFuncA type="table" tableValues="1 0"></feFuncA>
            </feComponentTransfer>
            <feGaussianBlur in="invert45" stdDeviation="3" result="blur45"></feGaussianBlur>
            <feOffset in="blur45" dx="0" dy="0" result="offsetblur145"></feOffset>
            <feOffset in="blur45" dy="0" result="offsetblur245"></feOffset>
            <feFlood flood-color="black"></feFlood> 
            <feComposite in2="offsetblur145" operator="in" result="offsetblur1cut45"></feComposite>
            <feFlood flood-color="black"></feFlood> 
            <feComposite in2="offsetblur245" operator="in" result="offsetblur2cut45"></feComposite>
            <feMerge>
                <feMergeNode in="SourceGraphic"></feMergeNode>
                <feMergeNode in="offsetblur145"></feMergeNode>
                <feMergeNode in="offsetblur245"></feMergeNode>
            </feMerge>
            <feComposite in2="SourceAlpha" operator="in"></feComposite>
        
            <feDropShadow id="ds_black_7_2_0_0" dx="0" dy="0" stdDeviation="7.2" flood-color="black"></feDropShadow>
        </filter><filter id="FILTER_23" height="300%" width="300%" x="-100%" y="-100%">
            <feComponentTransfer in="SourceAlpha" result="invert47">
                <feFuncA type="table" tableValues="1 0"></feFuncA>
            </feComponentTransfer>
            <feGaussianBlur in="invert47" stdDeviation="3" result="blur47"></feGaussianBlur>
            <feOffset in="blur47" dx="0" dy="0" result="offsetblur147"></feOffset>
            <feOffset in="blur47" dy="0" result="offsetblur247"></feOffset>
            <feFlood flood-color="black"></feFlood> 
            <feComposite in2="offsetblur147" operator="in" result="offsetblur1cut47"></feComposite>
            <feFlood flood-color="black"></feFlood> 
            <feComposite in2="offsetblur247" operator="in" result="offsetblur2cut47"></feComposite>
            <feMerge>
                <feMergeNode in="SourceGraphic"></feMergeNode>
                <feMergeNode in="offsetblur147"></feMergeNode>
                <feMergeNode in="offsetblur247"></feMergeNode>
            </feMerge>
            <feComposite in2="SourceAlpha" operator="in"></feComposite>
        
            <feDropShadow id="ds_black_4_4_0_0" dx="0" dy="0" stdDeviation="4.4" flood-color="black"></feDropShadow>
        </filter><filter id="FILTER_24" height="300%" width="300%" x="-100%" y="-100%">
            <feComponentTransfer in="SourceAlpha" result="invert49">
                <feFuncA type="table" tableValues="1 0"></feFuncA>
            </feComponentTransfer>
            <feGaussianBlur in="invert49" stdDeviation="3" result="blur49"></feGaussianBlur>
            <feOffset in="blur49" dx="0" dy="0" result="offsetblur149"></feOffset>
            <feOffset in="blur49" dy="0" result="offsetblur249"></feOffset>
            <feFlood flood-color="black"></feFlood> 
            <feComposite in2="offsetblur149" operator="in" result="offsetblur1cut49"></feComposite>
            <feFlood flood-color="black"></feFlood> 
            <feComposite in2="offsetblur249" operator="in" result="offsetblur2cut49"></feComposite>
            <feMerge>
                <feMergeNode in="SourceGraphic"></feMergeNode>
                <feMergeNode in="offsetblur149"></feMergeNode>
                <feMergeNode in="offsetblur249"></feMergeNode>
            </feMerge>
            <feComposite in2="SourceAlpha" operator="in"></feComposite>
        
            <feDropShadow id="ds_black_6_0_0" dx="0" dy="0" stdDeviation="6" flood-color="black"></feDropShadow>
        </filter></defs></svg>